<?xml version="1.0" encoding="UTF-8"?>
<svg version="1.1" xmlns="http://www.w3.org/2000/svg" width="200" height="200">
<path d="M0 0 C2.475 0.495 2.475 0.495 5 1 C5.99 4.465 5.99 4.465 7 8 C7.86278564 7.98952637 8.72557129 7.97905273 9.61450195 7.96826172 C12.81810521 7.93416017 16.0216159 7.90909143 19.2253418 7.89013672 C20.61144048 7.8800843 21.99751799 7.8664403 23.38354492 7.84912109 C25.3766975 7.82484048 27.37000533 7.81457969 29.36328125 7.8046875 C31.16212769 7.78897705 31.16212769 7.78897705 32.99731445 7.77294922 C36 8 36 8 39 10 C39.33 10 39.66 10 40 10 C43.48419239 10.62217721 46.09848851 11.98506147 49 14 C49 14.66 49 15.32 49 16 C49.66 16 50.32 16 51 16 C51.11682129 16.59135742 51.23364258 17.18271484 51.35400391 17.79199219 C52.25573804 22.33163506 53.17955396 26.86481149 54.1484375 31.390625 C57.61846303 47.83106603 60.08114351 64.31125188 62 81 C62.14373047 82.1142334 62.28746094 83.2284668 62.43554688 84.37646484 C62.55478516 85.43172363 62.67402344 86.48698242 62.796875 87.57421875 C62.90870117 88.50194092 63.02052734 89.42966309 63.13574219 90.38549805 C62.96377969 93.69763179 62.01686032 95.39436143 60 98 C56.8125 98.8125 56.8125 98.8125 54 99 C54 99.66 54 100.32 54 101 C49.05 101.99 49.05 101.99 44 103 C44 103.66 44 104.32 44 105 C42.576875 105.185625 42.576875 105.185625 41.125 105.375 C37.91332809 105.71687177 37.91332809 105.71687177 36 108 C36.66 108.66 37.32 109.32 38 110 C35.70839681 110.02692484 33.41670454 110.04636124 31.125 110.0625 C29.84882812 110.07410156 28.57265625 110.08570313 27.2578125 110.09765625 C24 110 24 110 22 109 C22 109.66 22 110.32 22 111 C23.14855469 110.96519531 24.29710938 110.93039063 25.48046875 110.89453125 C36.323657 110.66860711 45.63262748 111.54420916 56 115 C56.6837045 116.32467746 57.34964186 117.65863633 58 119 C59.485 119.99 59.485 119.99 61 121 C61.33 120.34 61.66 119.68 62 119 C67.81069118 117.96076285 74.28511105 117.30097896 80 119 C80.33 119.66 80.66 120.32 81 121 C83.33157492 121.34541851 85.66508361 121.67794257 88 122 C88.99 122.66 89.98 123.32 91 124 C91 124.66 91 125.32 91 126 C91.66 126 92.32 126 93 126 C93.12503906 126.54785156 93.25007812 127.09570312 93.37890625 127.66015625 C94.0841166 130.31689209 95.00744592 132.85089676 95.9375 135.4375 C99.15482236 145.03097032 100 153.88375491 100 164 C46.54 164 -6.92 164 -62 164 C-59.4200286 152.39012869 -55.61526243 145.99229973 -46.953125 138.0078125 C-44.92367291 136.12767084 -44.92367291 136.12767084 -43.921875 133.81640625 C-43 132 -43 132 -40 130.8125 C-38.515 130.4103125 -38.515 130.4103125 -37 130 C-36.34 129.67 -35.68 129.34 -35 129 C-32 128 -32 128 -28.5 127.5625 C-24.31783125 126.89036574 -22.63807883 125.67352765 -19.75 122.625 C-15.47418901 118.54354406 -10.99971136 115.72723774 -5 115 C-5 114.34 -5 113.68 -5 113 C-2.36 113 0.28 113 3 113 C1.42440675 111.42440675 -0.18393622 111.87234738 -2.3671875 111.859375 C-3.25277344 111.84003906 -4.13835937 111.82070312 -5.05078125 111.80078125 C-6.92556682 111.76707141 -8.80069446 111.74870893 -10.67578125 111.74609375 C-11.56394531 111.72160156 -12.45210937 111.69710937 -13.3671875 111.671875 C-14.18300293 111.6625293 -14.99881836 111.65318359 -15.83935547 111.64355469 C-18 111 -18 111 -19.65258789 108.91772461 C-21.19957589 105.56783268 -22.25457814 102.20049098 -23.19140625 98.64453125 C-23.47757057 97.59201424 -23.47757057 97.59201424 -23.76951599 96.51823425 C-24.17050444 95.03746005 -24.56782293 93.55568768 -24.96166992 92.07299805 C-25.55659011 89.83473474 -26.1629874 87.5998403 -26.77148438 85.36523438 C-32.39585365 64.57737181 -32.39585365 64.57737181 -32.375 54.0625 C-32.3747583 52.89799316 -32.3747583 52.89799316 -32.37451172 51.70996094 C-32.24548835 45.18273651 -30.70970847 39.93405149 -28 34 C-27.505 32.2365625 -27.505 32.2365625 -27 30.4375 C-26 28 -26 28 -23.9375 27.125 C-22.9784375 26.568125 -22.9784375 26.568125 -22 26 C-21.5366365 23.94354865 -21.37401616 21.97941494 -21.2734375 19.875 C-21 18 -21 18 -19 16 C-16.375 15.875 -16.375 15.875 -14 16 C-14.350625 15.113125 -14.70125 14.22625 -15.0625 13.3125 C-16.03877616 9.8629909 -16.33794241 8.30025795 -15 5 C-10.76786669 1.17742798 -5.43756166 1.30619279 0 1 C0 0.67 0 0.34 0 0 Z M14 9 C14 9.33 14 9.66 14 10 C20.93 10 27.86 10 35 10 C35 9.67 35 9.34 35 9 C28.07 9 21.14 9 14 9 Z M9 10 C9 10.33 9 10.66 9 11 C10.65 11 12.3 11 14 11 C14 10.67 14 10.34 14 10 C12.35 10 10.7 10 9 10 Z M24 108 C28 109 28 109 28 109 Z M20 109 C21 112 21 112 21 112 Z M-2 114 C-2.99 114.66 -3.98 115.32 -5 116 C-3.35 115.67 -1.7 115.34 0 115 C-0.66 114.67 -1.32 114.34 -2 114 Z " fill="#6F6D6F" transform="translate(93,36)"/>
<path d="M0 0 C0.99064453 -0.03738281 1.98128906 -0.07476562 3.00195312 -0.11328125 C10.23304429 -0.19863183 15.82030504 1.1918397 21.8125 5.375 C22.8025 6.86 22.8025 6.86 23.8125 8.375 C23.08804688 8.47296875 22.36359375 8.5709375 21.6171875 8.671875 C14.97771604 9.69877992 9.69438296 10.62933741 5.37890625 16.23828125 C-2.39585008 27.93345295 -0.07763922 44.64409876 2.5 57.8125 C4.53588988 67.78338106 6.94780069 77.68210623 9.41699219 87.5534668 C9.8125 89.375 9.8125 89.375 9.8125 91.375 C8.18883024 91.8380237 6.56346194 92.29509098 4.9375 92.75 C4.03257813 93.00523437 3.12765625 93.26046875 2.1953125 93.5234375 C1.07898438 93.80445313 -0.03734375 94.08546875 -1.1875 94.375 C-1.8899585 94.55216553 -2.59241699 94.72933105 -3.31616211 94.91186523 C-10.54778279 96.56081948 -17.60481113 96.70767236 -25 96.6875 C-26.20076172 96.70361328 -27.40152344 96.71972656 -28.63867188 96.73632812 C-29.79560547 96.73697266 -30.95253906 96.73761719 -32.14453125 96.73828125 C-33.18585205 96.74126221 -34.22717285 96.74424316 -35.30004883 96.74731445 C-38.61841449 96.31943692 -40.49684552 95.32996139 -43.1875 93.375 C-45.60370495 89.43320489 -46.61909457 84.97867546 -46.1875 80.375 C-45.5275 81.365 -44.8675 82.355 -44.1875 83.375 C-41.7870537 86.08854799 -39.91481988 87.22105938 -36.20141602 87.55200195 C-23.03859187 87.90890687 -11.05052734 87.82402127 -0.1875 79.375 C-0.5175 79.045 -0.8475 78.715 -1.1875 78.375 C-1.94933594 78.77332031 -1.94933594 78.77332031 -2.7265625 79.1796875 C-13.60622111 84.76213405 -13.60622111 84.76213405 -20.1875 84.375 C-20.5175 82.395 -20.8475 80.415 -21.1875 78.375 C-17.2275 77.385 -13.2675 76.395 -9.1875 75.375 C-11.66425731 75.375 -13.88609695 75.8772763 -16.3125 76.375 C-17.22257812 76.560625 -18.13265625 76.74625 -19.0703125 76.9375 C-19.76898438 77.081875 -20.46765625 77.22625 -21.1875 77.375 C-21.1875 80.015 -21.1875 82.655 -21.1875 85.375 C-24.5036619 86.4803873 -27.07286635 86.54253642 -30.5625 86.5625 C-31.68398437 86.57667969 -32.80546875 86.59085937 -33.9609375 86.60546875 C-37.20096012 86.37403856 -39.35852968 85.96024283 -42.1875 84.375 C-44.17794775 78.87757289 -44.25433372 74.17130613 -44.1875 68.375 C-43.3353894 68.31554199 -43.3353894 68.31554199 -42.46606445 68.25488281 C-31.21869831 67.43176616 -20.79709413 66.42987271 -10.1875 62.375 C-11.00347656 62.66375 -11.81945312 62.9525 -12.66015625 63.25 C-24.49624985 66.9592437 -35.86958635 66.79239314 -48.1875 66.375 C-47.86007813 67.45910156 -47.53265625 68.54320313 -47.1953125 69.66015625 C-46.25706629 73.11857541 -46.01420136 75.8223779 -46.1875 79.375 C-49.60493915 75.95756085 -49.85000547 71.05435569 -50.875 66.4375 C-51.11283203 65.42236328 -51.35066406 64.40722656 -51.59570312 63.36132812 C-51.92538086 61.90049805 -51.92538086 61.90049805 -52.26171875 60.41015625 C-52.46369873 59.5169165 -52.66567871 58.62367676 -52.8737793 57.70336914 C-53.1875 55.375 -53.1875 55.375 -52.1875 52.375 C-51.506875 52.87 -50.82625 53.365 -50.125 53.875 C-46.46318094 55.74486505 -44.25535405 55.88348176 -40.1875 55.375 C-37.43420979 53.57937595 -35.66122539 52.32245078 -34.1875 49.375 C-33.58873409 44.06309099 -33.29602674 39.79578551 -36.1875 35.1875 C-40.3098494 32.6969139 -42.4107453 32.84424948 -47.1875 33.375 C-50.22332599 34.44164156 -52.0348259 36.00705849 -54.1875 38.375 C-54.43530969 33.75610272 -53.75464092 30.55431992 -51.9375 26.3125 C-51.51984375 25.31089844 -51.1021875 24.30929688 -50.671875 23.27734375 C-49.13177263 20.26603832 -47.47258132 17.86573864 -45.1875 15.375 C-44.5275 15.375 -43.8675 15.375 -43.1875 15.375 C-43.5175 13.065 -43.8475 10.755 -44.1875 8.375 C-40.72708935 6.06805957 -38.28539669 5.75443488 -34.1875 5.375 C-33.8575 5.705 -33.5275 6.035 -33.1875 6.375 C-27.23197151 6.94849534 -23.22976916 6.73651278 -18.1875 3.375 C-14.875 3.1875 -14.875 3.1875 -12.1875 3.375 C-12.453125 5.26953125 -12.453125 5.26953125 -13.1875 7.375 C-14.859375 8.38671875 -14.859375 8.38671875 -16.9375 9.0625 C-17.61296875 9.29324219 -18.2884375 9.52398437 -18.984375 9.76171875 C-23.92254918 11.13635234 -28.35994645 11.48553788 -33.5 11.4375 C-34.75425781 11.42847656 -36.00851563 11.41945313 -37.30078125 11.41015625 C-38.25339844 11.39855469 -39.20601562 11.38695312 -40.1875 11.375 C-33.00227055 13.77007648 -24.59837754 12.0666819 -17.1875 11.375 C-17.1875 13.355 -17.1875 15.335 -17.1875 17.375 C-21.81119023 19.18179587 -25.61278653 19.59339082 -30.5625 19.5 C-31.80773437 19.48195313 -33.05296875 19.46390625 -34.3359375 19.4453125 C-35.27695313 19.42210938 -36.21796875 19.39890625 -37.1875 19.375 C-31.29684294 22.32032853 -23.6788594 20.45688734 -17.75 18.5 C-14.44362562 17.31129017 -11.29871046 16.00783386 -8.1875 14.375 C-7.71541115 9.15993186 -7.71541115 9.15993186 -9.375 4.4375 C-11.61248625 3.12587013 -13.63062331 2.72052388 -16.1875 2.375 C-16.1875 2.045 -16.1875 1.715 -16.1875 1.375 C-10.77523155 0.17443176 -5.52561898 0.07757729 0 0 Z " fill="#A4A6A9" transform="translate(117.1875,48.625)"/>
<path d="M0 0 C2.475 0.495 2.475 0.495 5 1 C5.66 3.31 6.32 5.62 7 8 C7.86278564 7.98952637 8.72557129 7.97905273 9.61450195 7.96826172 C12.81810521 7.93416017 16.0216159 7.90909143 19.2253418 7.89013672 C20.61144048 7.8800843 21.99751799 7.8664403 23.38354492 7.84912109 C25.3766975 7.82484048 27.37000533 7.81457969 29.36328125 7.8046875 C31.16212769 7.78897705 31.16212769 7.78897705 32.99731445 7.77294922 C36 8 36 8 39 10 C39.33 10 39.66 10 40 10 C43.48419239 10.62217721 46.09848851 11.98506147 49 14 C49 14.66 49 15.32 49 16 C49.66 16 50.32 16 51 16 C51.18175781 17.28390625 51.36351562 18.5678125 51.55078125 19.890625 C51.80453107 21.67710556 52.05845095 23.46356197 52.3125 25.25 C52.44785156 26.20293945 52.58320313 27.15587891 52.72265625 28.13769531 C53.49526262 33.55130521 54.29592436 38.95919048 55.13232422 44.36328125 C56.45901249 52.97530288 57.62507194 61.60132969 58.6875 70.25 C58.88472656 71.82152832 58.88472656 71.82152832 59.0859375 73.42480469 C59.75435521 78.99674907 60.14095837 84.38851455 60 90 C59.34 90 58.68 90 58 90 C58.33 90.99 58.66 91.98 59 93 C51.59596831 98.24452245 43.48831737 101.0023054 35 104 C32.66738029 101.66738029 32.39481186 100.3517995 31.59765625 97.1875 C31.34838379 96.20362305 31.09911133 95.21974609 30.84228516 94.20605469 C30.58495605 93.14805664 30.32762695 92.09005859 30.0625 91 C29.79743652 89.91364258 29.53237305 88.82728516 29.25927734 87.70800781 C26.198231 74.92574053 23.77880395 62.61581323 23.625 49.4375 C23.61098145 48.62829102 23.59696289 47.81908203 23.58251953 46.98535156 C23.64887471 38.74710126 25.62840141 31.52137183 31.33203125 25.4375 C35.89201353 21.50758553 41.17491165 20.59439677 47 20 C41.45813169 16.13358025 37.31422917 13.72833263 30.48046875 13.8046875 C29.45888672 13.81113281 28.43730469 13.81757812 27.38476562 13.82421875 C26.32966797 13.84097656 25.27457031 13.85773437 24.1875 13.875 C23.11306641 13.88402344 22.03863281 13.89304687 20.93164062 13.90234375 C18.28753146 13.92584694 15.64388128 13.95870425 13 14 C13.65484375 14.73605469 14.3096875 15.47210938 14.984375 16.23046875 C17.85002051 20.16795453 17.32118922 22.26245902 17 27 C7.50538504 32.00520949 -2.34644576 36.58560429 -13.26171875 33.32421875 C-15.1875 32.5 -15.1875 32.5 -18 31 C-17.01 30.67 -16.02 30.34 -15 30 C-14.34 30.33 -13.68 30.66 -13 31 C-10.75174913 31.09800068 -8.50038076 31.12974764 -6.25 31.125 C-5.03828125 31.12757812 -3.8265625 31.13015625 -2.578125 31.1328125 C0.70974633 31.01077361 3.77406537 30.62341681 7 30 C7 28.02 7 26.04 7 24 C5.83984375 24.2165625 5.83984375 24.2165625 4.65625 24.4375 C-11.9140625 27.390625 -11.9140625 27.390625 -17 24 C-14.26666414 22.63333207 -12.17614982 23.01524641 -9.125 23.125 C-2.58298168 23.16866197 3.95116294 22.67948485 10 20 C11.37195713 18.00009897 11.37195713 18.00009897 12 16 C7.40264787 17.16841761 7.40264787 17.16841761 3.08203125 19.05859375 C0.55696402 20.20032208 -1.30221958 20.23329651 -4.0625 20.1875 C-4.91972656 20.18105469 -5.77695313 20.17460938 -6.66015625 20.16796875 C-9 20 -9 20 -12 19 C-14.35188447 19.59793673 -16.68925595 20.25881795 -19 21 C-18.896875 22.051875 -18.79375 23.10375 -18.6875 24.1875 C-19.08799085 29.07348842 -20.58960655 29.58960655 -24 33 C-26.83220323 38.48835059 -29.40379583 43.72385911 -29 50 C-28.38125 49.360625 -27.7625 48.72125 -27.125 48.0625 C-23.89571704 44.92819595 -21.5506612 44.61211003 -17.0390625 44.63671875 C-13.650961 45.24034603 -12.08013101 47.4155948 -10 50 C-9.505 50.495 -9.505 50.495 -9 51 C-8.47736576 55.38266144 -7.97628652 60.01751008 -10.046875 64.02734375 C-11.80855041 66.14653564 -13.52635848 67.76317924 -16 69 C-21.14448526 69.38826304 -23.72771892 68.79426301 -28 66 C-25.83768157 78.07316555 -25.83768157 78.07316555 -23 90 C-23.33 86.37 -23.66 82.74 -24 79 C-22.5253125 78.97421875 -21.050625 78.9484375 -19.53125 78.921875 C-7.49369949 78.61280413 3.48809526 77.59224894 15 74 C14 76 14 76 11.26953125 77.03515625 C10.12871094 77.37417969 8.98789063 77.71320313 7.8125 78.0625 C6.68457031 78.40410156 5.55664062 78.74570313 4.39453125 79.09765625 C-1.43039292 80.64605381 -6.86458527 81.13761357 -12.875 81.0625 C-15.22625 81.041875 -17.5775 81.02125 -20 81 C-19.34 86.28 -18.68 91.56 -18 97 C-13.43213534 97.91357293 -9.30084907 98.11609566 -4.6875 98.0625 C-3.94693359 98.05798828 -3.20636719 98.05347656 -2.44335938 98.04882812 C-0.62887101 98.03712175 1.18557534 98.01918898 3 98 C2.67 97.34 2.34 96.68 2 96 C1.93049459 94.45976004 1.91547643 92.91665012 1.9375 91.375 C1.94652344 90.55773437 1.95554688 89.74046875 1.96484375 88.8984375 C1.97644531 88.27195312 1.98804688 87.64546875 2 87 C2.99 87.99 2.99 87.99 4 89 C6.22128555 89.02308597 6.22128555 89.02308597 8.625 88.625 C9.44226563 88.51414062 10.25953125 88.40328125 11.1015625 88.2890625 C11.72804687 88.19367188 12.35453125 88.09828125 13 88 C13.495 86.515 13.495 86.515 14 85 C14 85.66 14 86.32 14 87 C15.32 87.33 16.64 87.66 18 88 C16.25183142 88.50636607 14.50137737 89.00484619 12.75 89.5 C11.77546875 89.7784375 10.8009375 90.056875 9.796875 90.34375 C7 91 7 91 3 91 C3.33 92.98 3.66 94.96 4 97 C6.04367572 96.40266451 8.08486043 95.79680343 10.125 95.1875 C11.26195312 94.85105469 12.39890625 94.51460938 13.5703125 94.16796875 C20.27037712 91.93699381 20.27037712 91.93699381 25 87 C25.4375 89.1875 25.4375 89.1875 25 92 C16.74884768 99.68857375 6.53394704 101.35322657 -4.375 101.4375 C-5.2311792 101.4475708 -6.0873584 101.4576416 -6.96948242 101.46801758 C-12.02544218 101.39816061 -15.64004973 100.8305074 -20 98 C-20.33 97.34 -20.66 96.68 -21 96 C-21.99 96.99 -21.99 96.99 -23 98 C-24.13134632 94.04345311 -25.25389455 90.08445974 -26.375 86.125 C-26.69210938 85.01640625 -27.00921875 83.9078125 -27.3359375 82.765625 C-30.03445218 73.2083855 -32.39478463 64.03835238 -32.375 54.0625 C-32.37483887 53.28616211 -32.37467773 52.50982422 -32.37451172 51.70996094 C-32.24548835 45.18273651 -30.70970847 39.93405149 -28 34 C-27.67 32.824375 -27.34 31.64875 -27 30.4375 C-26 28 -26 28 -23.9375 27.125 C-23.298125 26.75375 -22.65875 26.3825 -22 26 C-21.5366365 23.94354865 -21.37401616 21.97941494 -21.2734375 19.875 C-21 18 -21 18 -19 16 C-16.375 15.875 -16.375 15.875 -14 16 C-14.350625 15.113125 -14.70125 14.22625 -15.0625 13.3125 C-16.03877616 9.8629909 -16.33794241 8.30025795 -15 5 C-10.76786669 1.17742798 -5.43756166 1.30619279 0 1 C0 0.67 0 0.34 0 0 Z M14 9 C14 9.33 14 9.66 14 10 C20.93 10 27.86 10 35 10 C35 9.67 35 9.34 35 9 C28.07 9 21.14 9 14 9 Z M9 10 C9 10.33 9 10.66 9 11 C10.65 11 12.3 11 14 11 C14 10.67 14 10.34 14 10 C12.35 10 10.7 10 9 10 Z " fill="#727274" transform="translate(93,36)"/>
<path d="M0 0 C3.14575207 -0.05896868 6.2913586 -0.09391603 9.4375 -0.125 C10.75524414 -0.15013672 10.75524414 -0.15013672 12.09960938 -0.17578125 C18.04759738 -0.21967784 23.2381756 0.51118678 29 2 C29 2.66 29 3.32 29 4 C28.48050781 4.23074219 27.96101563 4.46148437 27.42578125 4.69921875 C22.74944087 6.886121 19.46528649 9.07875476 16 13 C15.29423828 13.71929687 15.29423828 13.71929687 14.57421875 14.453125 C5.07669575 24.56418308 2.22359187 36.54048944 1 50 C-19.13 50 -39.26 50 -60 50 C-58.87219619 40.97756953 -58.87219619 40.97756953 -57.46875 38.0703125 C-57.15744141 37.42497559 -56.84613281 36.77963867 -56.52539062 36.11474609 C-56.18701172 35.45812988 -55.84863281 34.80151367 -55.5 34.125 C-54.96922852 33.08400146 -54.96922852 33.08400146 -54.42773438 32.02197266 C-47.8677665 19.6688983 -37.17051522 9.93093844 -24 5 C-21.48752938 4.64619398 -19.54155659 4.72374385 -17 5 C-16.505 7.97 -16.505 7.97 -16 11 C-14.02 11.66 -12.04 12.32 -10 13 C-10 13.99 -10 14.98 -10 16 C-9.34 16 -8.68 16 -8 16 C-8 15.01 -8 14.02 -8 13 C-6.02 12.67 -4.04 12.34 -2 12 C-2 13.32 -2 14.64 -2 16 C-0.02 16 1.96 16 4 16 C4 15.34 4 14.68 4 14 C2.68 14 1.36 14 0 14 C-1.10370043 10.6888987 -0.92673641 8.75251051 -0.5625 5.3125 C-0.46066406 4.31863281 -0.35882813 3.32476562 -0.25390625 2.30078125 C-0.17011719 1.54152344 -0.08632812 0.78226563 0 0 Z " fill="#A5A7AA" transform="translate(112,150)"/>
<path d="M0 0 C0.99 0.66 1.98 1.32 3 2 C3 2.66 3 3.32 3 4 C3.61617187 4.09667969 4.23234375 4.19335938 4.8671875 4.29296875 C7 5 7 5 9.125 8.3125 C13.44717237 17.8551786 13.26894375 28.76521253 14 39 C-6.46 39 -26.92 39 -48 39 C-46.56753222 26.10779 -41.81772628 12.44715967 -31.8984375 3.4375 C-22.58001833 -3.61842233 -10.85334363 -3.73299717 0 0 Z " fill="#A5A7AA" transform="translate(177,161)"/>
<path d="M0 0 C2.475 0.495 2.475 0.495 5 1 C5.66 3.31 6.32 5.62 7 8 C7.86278564 7.98952637 8.72557129 7.97905273 9.61450195 7.96826172 C12.81810521 7.93416017 16.0216159 7.90909143 19.2253418 7.89013672 C20.61144048 7.8800843 21.99751799 7.8664403 23.38354492 7.84912109 C25.3766975 7.82484048 27.37000533 7.81457969 29.36328125 7.8046875 C31.16212769 7.78897705 31.16212769 7.78897705 32.99731445 7.77294922 C36 8 36 8 39 10 C39.33 10 39.66 10 40 10 C43.48419239 10.62217721 46.09848851 11.98506147 49 14 C49 14.66 49 15.32 49 16 C49.66 16 50.32 16 51 16 C51.495 20.95 51.495 20.95 52 26 C51.443125 25.2575 50.88625 24.515 50.3125 23.75 C45.75078588 18.32525889 40.46985021 14.39429248 33.27661133 13.75976562 C30.19997588 13.70552966 27.13865723 13.73803064 24.0625 13.8125 C22.46438477 13.83280273 22.46438477 13.83280273 20.83398438 13.85351562 C18.22212412 13.88865276 15.61133366 13.93784816 13 14 C13.65484375 14.73605469 14.3096875 15.47210938 14.984375 16.23046875 C17.85002051 20.16795453 17.32118922 22.26245902 17 27 C7.50538504 32.00520949 -2.34644576 36.58560429 -13.26171875 33.32421875 C-15.1875 32.5 -15.1875 32.5 -18 31 C-17.01 30.67 -16.02 30.34 -15 30 C-14.34 30.33 -13.68 30.66 -13 31 C-10.75174913 31.09800068 -8.50038076 31.12974764 -6.25 31.125 C-5.03828125 31.12757812 -3.8265625 31.13015625 -2.578125 31.1328125 C0.70974633 31.01077361 3.77406537 30.62341681 7 30 C7 28.02 7 26.04 7 24 C5.83984375 24.2165625 5.83984375 24.2165625 4.65625 24.4375 C-11.9140625 27.390625 -11.9140625 27.390625 -17 24 C-14.26666414 22.63333207 -12.17614982 23.01524641 -9.125 23.125 C-2.58298168 23.16866197 3.95116294 22.67948485 10 20 C11.37195713 18.00009897 11.37195713 18.00009897 12 16 C7.40264787 17.16841761 7.40264787 17.16841761 3.08203125 19.05859375 C0.55696402 20.20032208 -1.30221958 20.23329651 -4.0625 20.1875 C-4.91972656 20.18105469 -5.77695313 20.17460938 -6.66015625 20.16796875 C-9 20 -9 20 -12 19 C-14.35188447 19.59793673 -16.68925595 20.25881795 -19 21 C-18.896875 22.051875 -18.79375 23.10375 -18.6875 24.1875 C-19.08799085 29.07348842 -20.58960655 29.58960655 -24 33 C-26.83220323 38.48835059 -29.40379583 43.72385911 -29 50 C-28.38125 49.360625 -27.7625 48.72125 -27.125 48.0625 C-23.89571704 44.92819595 -21.5506612 44.61211003 -17.0390625 44.63671875 C-13.650961 45.24034603 -12.08013101 47.4155948 -10 50 C-9.505 50.495 -9.505 50.495 -9 51 C-8.47736576 55.38266144 -7.97628652 60.01751008 -10.046875 64.02734375 C-11.80855041 66.14653564 -13.52635848 67.76317924 -16 69 C-21.14448526 69.38826304 -23.72771892 68.79426301 -28 66 C-25.83768157 78.07316555 -25.83768157 78.07316555 -23 90 C-23.33 86.37 -23.66 82.74 -24 79 C-22.5253125 78.97421875 -21.050625 78.9484375 -19.53125 78.921875 C-7.49369949 78.61280413 3.48809526 77.59224894 15 74 C14 76 14 76 11.26953125 77.03515625 C10.12871094 77.37417969 8.98789063 77.71320313 7.8125 78.0625 C6.68457031 78.40410156 5.55664062 78.74570313 4.39453125 79.09765625 C-1.43039292 80.64605381 -6.86458527 81.13761357 -12.875 81.0625 C-15.22625 81.041875 -17.5775 81.02125 -20 81 C-19.34 86.28 -18.68 91.56 -18 97 C-13.43213534 97.91357293 -9.30084907 98.11609566 -4.6875 98.0625 C-3.94693359 98.05798828 -3.20636719 98.05347656 -2.44335938 98.04882812 C-0.62887101 98.03712175 1.18557534 98.01918898 3 98 C2.67 97.34 2.34 96.68 2 96 C1.93049459 94.45976004 1.91547643 92.91665012 1.9375 91.375 C1.94652344 90.55773437 1.95554688 89.74046875 1.96484375 88.8984375 C1.97644531 88.27195312 1.98804688 87.64546875 2 87 C2.99 87.99 2.99 87.99 4 89 C6.22128555 89.02308597 6.22128555 89.02308597 8.625 88.625 C9.44226563 88.51414062 10.25953125 88.40328125 11.1015625 88.2890625 C11.72804687 88.19367188 12.35453125 88.09828125 13 88 C13.495 86.515 13.495 86.515 14 85 C14 85.66 14 86.32 14 87 C15.32 87.33 16.64 87.66 18 88 C16.25183142 88.50636607 14.50137737 89.00484619 12.75 89.5 C11.77546875 89.7784375 10.8009375 90.056875 9.796875 90.34375 C7 91 7 91 3 91 C3.33 92.98 3.66 94.96 4 97 C6.04367572 96.40266451 8.08486043 95.79680343 10.125 95.1875 C11.26195312 94.85105469 12.39890625 94.51460938 13.5703125 94.16796875 C20.27037712 91.93699381 20.27037712 91.93699381 25 87 C25.4375 89.1875 25.4375 89.1875 25 92 C16.74884768 99.68857375 6.53394704 101.35322657 -4.375 101.4375 C-5.2311792 101.4475708 -6.0873584 101.4576416 -6.96948242 101.46801758 C-12.02544218 101.39816061 -15.64004973 100.8305074 -20 98 C-20.33 97.34 -20.66 96.68 -21 96 C-21.99 96.99 -21.99 96.99 -23 98 C-24.13134632 94.04345311 -25.25389455 90.08445974 -26.375 86.125 C-26.69210938 85.01640625 -27.00921875 83.9078125 -27.3359375 82.765625 C-30.03445218 73.2083855 -32.39478463 64.03835238 -32.375 54.0625 C-32.37483887 53.28616211 -32.37467773 52.50982422 -32.37451172 51.70996094 C-32.24548835 45.18273651 -30.70970847 39.93405149 -28 34 C-27.67 32.824375 -27.34 31.64875 -27 30.4375 C-26 28 -26 28 -23.9375 27.125 C-23.298125 26.75375 -22.65875 26.3825 -22 26 C-21.5366365 23.94354865 -21.37401616 21.97941494 -21.2734375 19.875 C-21 18 -21 18 -19 16 C-16.375 15.875 -16.375 15.875 -14 16 C-14.350625 15.113125 -14.70125 14.22625 -15.0625 13.3125 C-16.03877616 9.8629909 -16.33794241 8.30025795 -15 5 C-10.76786669 1.17742798 -5.43756166 1.30619279 0 1 C0 0.67 0 0.34 0 0 Z M14 9 C14 9.33 14 9.66 14 10 C20.93 10 27.86 10 35 10 C35 9.67 35 9.34 35 9 C28.07 9 21.14 9 14 9 Z M9 10 C9 10.33 9 10.66 9 11 C10.65 11 12.3 11 14 11 C14 10.67 14 10.34 14 10 C12.35 10 10.7 10 9 10 Z " fill="#401F1F" transform="translate(93,36)"/>
<path d="M0 0 C2.90443686 3.53583618 2.90443686 3.53583618 3.4375 6.125 C3.82188253 8.15961787 3.82188253 8.15961787 5.76464844 9.09130859 C8.09425547 10.03831573 9.82676602 10.3068614 12.328125 10.4140625 C13.52695313 10.47207031 13.52695313 10.47207031 14.75 10.53125 C15.9875 10.57765625 15.9875 10.57765625 17.25 10.625 C18.09046875 10.66367188 18.9309375 10.70234375 19.796875 10.7421875 C21.86423382 10.83615836 23.93208627 10.91915564 26 11 C26 11.66 26 12.32 26 13 C32.93 12.01 32.93 12.01 40 11 C40 13.31 40 15.62 40 18 C39.34 18.33 38.68 18.66 38 19 C38.66 19 39.32 19 40 19 C40.16802051 20.45817797 40.33437143 21.9165484 40.5 23.375 C40.5928125 24.18710938 40.685625 24.99921875 40.78125 25.8359375 C41 28 41 28 41 30 C42.32 30 43.64 30 45 30 C45 30.66 45 31.32 45 32 C40.545 32.495 40.545 32.495 36 33 C36.99 32.67 37.98 32.34 39 32 C39 30.68 39 29.36 39 28 C37.02 28.33 35.04 28.66 33 29 C33 29.99 33 30.98 33 32 C32.34 32 31.68 32 31 32 C31 31.01 31 30.02 31 29 C30.030625 28.855625 29.06125 28.71125 28.0625 28.5625 C25 28 25 28 24 27 C23.95919217 25.00041636 23.95745644 22.99954746 24 21 C11.62221172 22.52747175 2.42011265 28.98552646 -6 38 C-12.57304614 46.70960033 -16.36811005 55.4724402 -19 66 C-25.93 66 -32.86 66 -40 66 C-37.4200286 54.39012869 -33.61526243 47.99229973 -24.953125 40.0078125 C-22.92367291 38.12767084 -22.92367291 38.12767084 -21.921875 35.81640625 C-21 34 -21 34 -18 32.8125 C-17.01 32.544375 -16.02 32.27625 -15 32 C-14.34 31.67 -13.68 31.34 -13 31 C-10 30 -10 30 -6.5 29.5625 C-2.31783125 28.89036574 -0.63807883 27.67352765 2.25 24.625 C6.52581099 20.54354406 11.00028864 17.72723774 17 17 C17 16.34 17 15.68 17 15 C19.64 15 22.28 15 25 15 C23.42440675 13.42440675 21.81606378 13.87234738 19.6328125 13.859375 C18.74722656 13.84003906 17.86164063 13.82070312 16.94921875 13.80078125 C15.07443318 13.76707141 13.19930554 13.74870893 11.32421875 13.74609375 C8.7932964 13.67630054 6.47076597 13.55597252 4 13 C0.45507425 9.13702484 0.42615656 5.02864738 0 0 Z M20 16 C19.01 16.66 18.02 17.32 17 18 C18.65 17.67 20.3 17.34 22 17 C21.34 16.67 20.68 16.34 20 16 Z " fill="#482E2E" transform="translate(71,134)"/>
<path d="M0 0 C1.99802473 5.1948643 4.16637604 11.6709684 2.25 17.140625 C-0.80755121 21.68873243 -7.92891371 23.64771032 -13 25 C-15.875 25.125 -15.875 25.125 -18 25 C-18.33 23.02 -18.66 21.04 -19 19 C-15.04 18.01 -11.08 17.02 -7 16 C-9.47675731 16 -11.69859695 16.5022763 -14.125 17 C-15.03507812 17.185625 -15.94515625 17.37125 -16.8828125 17.5625 C-17.58148438 17.706875 -18.28015625 17.85125 -19 18 C-19 20.64 -19 23.28 -19 26 C-22.3161619 27.1053873 -24.88536635 27.16753642 -28.375 27.1875 C-29.49648437 27.20167969 -30.61796875 27.21585938 -31.7734375 27.23046875 C-35.01346012 26.99903856 -37.17102968 26.58524283 -40 25 C-41.99044775 19.50257289 -42.06683372 14.79630613 -42 9 C-41.43192627 8.96036133 -40.86385254 8.92072266 -40.27856445 8.87988281 C-23.7392542 7.8440765 -23.7392542 7.8440765 -8 3 C-7.67 2.34 -7.34 1.68 -7 1 C-4 0 -4 0 0 0 Z " fill="#8C5F24" transform="translate(115,108)"/>
<path d="M0 0 C2.29996779 3.44995169 2.6885534 5.85540433 3.40234375 9.9296875 C3.52489532 10.62437134 3.6474469 11.31905518 3.77371216 12.03479004 C4.17128528 14.31332205 4.55586529 16.59374711 4.9375 18.875 C5.13434891 20.0391745 5.13434891 20.0391745 5.33517456 21.22686768 C7.18716995 32.2436407 8.8167822 43.27288855 10.0625 54.375 C10.20743896 55.57882324 10.35237793 56.78264648 10.50170898 58.02294922 C10.61587158 59.13686035 10.73003418 60.25077148 10.84765625 61.3984375 C10.95086182 62.36442871 11.05406738 63.33041992 11.16040039 64.32568359 C10.96036312 67.66085595 10.03719289 69.3763028 8 72 C4.8125 72.8125 4.8125 72.8125 2 73 C2 73.66 2 74.32 2 75 C-2.95 75.99 -2.95 75.99 -8 77 C-8 77.66 -8 78.32 -8 79 C-8.94875 79.12375 -9.8975 79.2475 -10.875 79.375 C-14.08667191 79.71687177 -14.08667191 79.71687177 -16 82 C-15.01 82.99 -15.01 82.99 -14 84 C-16.29160319 84.02692484 -18.58329546 84.04636124 -20.875 84.0625 C-22.15117188 84.07410156 -23.42734375 84.08570313 -24.7421875 84.09765625 C-28 84 -28 84 -30 83 C-30 83.66 -30 84.32 -30 85 C-28.85144531 84.96519531 -27.70289062 84.93039063 -26.51953125 84.89453125 C-15.676343 84.66860711 -6.36737252 85.54420916 4 89 C4.6837045 90.32467746 5.34964186 91.65863633 6 93 C6.99 93.66 7.98 94.32 9 95 C9.33 94.34 9.66 93.68 10 93 C15.81069118 91.96076285 22.28511105 91.30097896 28 93 C28.33 93.66 28.66 94.32 29 95 C31.33157492 95.34541851 33.66508361 95.67794257 36 96 C37.485 96.99 37.485 96.99 39 98 C39 98.66 39 99.32 39 100 C39.66 100 40.32 100 41 100 C41.12503906 100.54785156 41.25007813 101.09570312 41.37890625 101.66015625 C42.0841166 104.31689209 43.00744592 106.85089676 43.9375 109.4375 C47.0808091 118.81027622 48.33429185 128.13839042 48 138 C47.34 138 46.68 138 46 138 C45.89510254 137.0255896 45.89510254 137.0255896 45.78808594 136.03149414 C45.45725569 133.03992705 45.10378497 130.0514359 44.75 127.0625 C44.64042969 126.04091797 44.53085938 125.01933594 44.41796875 123.96679688 C43.61360702 117.34139632 42.09682682 111.91400985 39 106 C38.67 105.34 38.34 104.68 38 104 C36.515 103.505 36.515 103.505 35 103 C34.52433594 102.50886719 34.04867187 102.01773438 33.55859375 101.51171875 C29.51993664 97.59452501 22.31741764 97.82194139 17 97.625 C9.99934577 97.7937975 4.8625394 99.21781258 -0.2265625 104.1640625 C-2.22270009 106.39247792 -4.11180656 108.68034155 -6 111 C-6.98540376 112.01438623 -7.9798668 113.02054696 -9 114 C-7.4806381 108.59782434 -3.74948147 104.99165288 0 101 C0.52722656 100.42507812 1.05445313 99.85015625 1.59765625 99.2578125 C3 98 3 98 5 98 C2.82309041 95.32072666 1.63885629 94.11357445 -1.8125 93.5 C-4.82309123 93.9722496 -6.20717097 94.54526106 -8.75 96.0625 C-9.8225 96.701875 -10.895 97.34125 -12 98 C-12.99 97.505 -12.99 97.505 -14 97 C-10.71195019 94.08772731 -8.40114397 92.50298788 -4 92 C-4 91.34 -4 90.68 -4 90 C-10.52190909 89.21047082 -17.00084082 88.73116193 -23.5625 88.4375 C-24.47580078 88.39431641 -25.38910156 88.35113281 -26.33007812 88.30664062 C-28.55327991 88.20188243 -30.77656707 88.09970983 -33 88 C-32.67 89.98 -32.34 91.96 -32 94 C-32.99 94.495 -32.99 94.495 -34 95 C-34 93.68 -34 92.36 -34 91 C-36.475 91.495 -36.475 91.495 -39 92 C-38.01 91.01 -38.01 91.01 -37 90 C-36.01 90 -35.02 90 -34 90 C-34 87.69 -34 85.38 -34 83 C-34.9590625 83.495 -34.9590625 83.495 -35.9375 84 C-40.01236841 85.33056928 -43.75190425 85.16659199 -48 85 C-48 84.34 -48 83.68 -48 83 C-46.8140625 82.82984375 -45.628125 82.6596875 -44.40625 82.484375 C-17.34400472 78.94378827 -17.34400472 78.94378827 6 66 C6 65.34 6 64.68 6 64 C6.66 64 7.32 64 8 64 C7.3498508 58.4530891 6.69234413 52.90711274 6.02856445 47.36181641 C5.80462938 45.48281363 5.58256369 43.60358693 5.36254883 41.72412109 C4.12909927 31.19905946 2.74162007 20.80258858 0.56176758 10.42773438 C-0.01779931 6.89139406 -0.09742213 3.57690626 0 0 Z M-28 82 C-24 83 -24 83 -24 83 Z M-32 83 C-31 86 -31 86 -31 86 Z " fill="#3C1B1A" transform="translate(145,62)"/>
<path d="M0 0 C0.66 0 1.32 0 2 0 C2.79391085 3.45782199 3.58470512 6.91634994 4.375 10.375 C4.59671875 11.34050781 4.8184375 12.30601563 5.046875 13.30078125 C6.46504523 19.51570375 7.78551649 25.7420602 9 32 C1.3828125 34.1484375 1.3828125 34.1484375 -2 35 C-2.7024585 35.17716553 -3.40491699 35.35433105 -4.12866211 35.53686523 C-11.36028279 37.18581948 -18.41731113 37.33267236 -25.8125 37.3125 C-27.01326172 37.32861328 -28.21402344 37.34472656 -29.45117188 37.36132812 C-30.60810547 37.36197266 -31.76503906 37.36261719 -32.95703125 37.36328125 C-33.99835205 37.36626221 -35.03967285 37.36924316 -36.11254883 37.37231445 C-39.43091449 36.94443692 -41.30934552 35.95496139 -44 34 C-46.41620495 30.05820489 -47.43159457 25.60367546 -47 21 C-46.34 21.99 -45.68 22.98 -45 24 C-42.5995537 26.71354799 -40.72731988 27.84605938 -37.01391602 28.17700195 C-21.5734168 28.65524269 -21.5734168 28.65524269 -7 24 C-5.89914063 23.45859375 -4.79828125 22.9171875 -3.6640625 22.359375 C-0.57745677 20.17558428 -0.57745677 20.17558428 -0.703125 16.25 C-0.85416843 14.82966181 -1.03761789 13.41246895 -1.25 12 C-2.35876712 3.37972603 -2.35876712 3.37972603 0 0 Z " fill="#A1A1A4" transform="translate(118,108)"/>
<path d="M0 0 C3.44987305 1.3639033 4.37972027 3.25063513 5.84375 6.57421875 C8.93176495 15.68100357 9.11669663 25.54911048 9.6875 35.0625 C2.4275 35.0625 -4.8325 35.0625 -12.3125 35.0625 C-12.3125 28.76768343 -12.17201614 23.95135343 -10.625 18.0625 C-10.44928467 17.37406006 -10.27356934 16.68562012 -10.0925293 15.97631836 C-5.81136793 0.157064 -5.81136793 0.157064 0 0 Z " fill="#716F71" transform="translate(181.3125,164.9375)"/>
<path d="M0 0 C3.6948445 2.24781415 5.50606352 5.06172513 6.56640625 9.22265625 C6.93511231 13.79618037 6.05999982 16.47221696 3.125 20 C0.3773159 22.86714862 -1.13177042 23.91487945 -5.1875 24.3125 C-9.98369952 23.91936889 -12.05555532 22.70697184 -16 20 C-18.82605874 15.7609119 -18.66012246 11.97875497 -18 7 C-13.66485753 -0.17540823 -7.92285166 -1.44462252 0 0 Z " fill="#524546" transform="translate(108,81)"/>
<path d="M0 0 C-0.43570313 0.46148437 -0.87140625 0.92296875 -1.3203125 1.3984375 C-9.96097141 10.8620163 -14.89737338 20.38424027 -17 33 C-22.61 33 -28.22 33 -34 33 C-32.45876358 20.67010865 -27.41315146 14.02432583 -18 6 C-13.62265424 2.95365206 -5.33035007 -2.66517503 0 0 Z " fill="#A5A7A9" transform="translate(68,167)"/>
<path d="M0 0 C2.95052138 0.31897528 4.54890092 0.52844535 6.63671875 2.7109375 C9.10896594 6.86204597 8.74160865 11.33460741 8 16 C6.33980142 19.17282395 4.24819734 21.37590133 1 23 C-4.14448526 23.38826304 -6.72771892 22.79426301 -11 20 C-8.83768157 32.07316555 -8.83768157 32.07316555 -6 44 C-6.33 40.37 -6.66 36.74 -7 33 C-5.5253125 32.97421875 -4.050625 32.9484375 -2.53125 32.921875 C9.50630051 32.61280413 20.48809526 31.59224894 32 28 C31 30 31 30 28.26953125 31.03515625 C27.12871094 31.37417969 25.98789063 31.71320313 24.8125 32.0625 C23.68457031 32.40410156 22.55664062 32.74570313 21.39453125 33.09765625 C15.56960708 34.64605381 10.13541473 35.13761357 4.125 35.0625 C1.77375 35.041875 -0.5775 35.02125 -3 35 C-2.34 40.28 -1.68 45.56 -1 51 C3.56786466 51.91357293 7.69915093 52.11609566 12.3125 52.0625 C13.05306641 52.05798828 13.79363281 52.05347656 14.55664062 52.04882812 C16.37112899 52.03712175 18.18557534 52.01918898 20 52 C19.67 51.34 19.34 50.68 19 50 C18.93049459 48.45976004 18.91547643 46.91665012 18.9375 45.375 C18.94652344 44.55773437 18.95554688 43.74046875 18.96484375 42.8984375 C18.97644531 42.27195313 18.98804688 41.64546875 19 41 C19.66 41.66 20.32 42.32 21 43 C23.22128555 43.02308597 23.22128555 43.02308597 25.625 42.625 C26.44226563 42.51414063 27.25953125 42.40328125 28.1015625 42.2890625 C28.72804687 42.19367188 29.35453125 42.09828125 30 42 C30.33 41.01 30.66 40.02 31 39 C31 39.66 31 40.32 31 41 C32.32 41.33 33.64 41.66 35 42 C33.25183142 42.50636607 31.50137737 43.00484619 29.75 43.5 C28.77546875 43.7784375 27.8009375 44.056875 26.796875 44.34375 C24 45 24 45 20 45 C20.495 47.97 20.495 47.97 21 51 C23.04367572 50.40266451 25.08486043 49.79680343 27.125 49.1875 C28.26195312 48.85105469 29.39890625 48.51460937 30.5703125 48.16796875 C37.27037712 45.93699381 37.27037712 45.93699381 42 41 C42.4375 43.1875 42.4375 43.1875 42 46 C33.74884768 53.68857375 23.53394704 55.35322657 12.625 55.4375 C11.7688208 55.4475708 10.9126416 55.4576416 10.03051758 55.46801758 C4.97455782 55.39816061 1.35995027 54.8305074 -3 52 C-3.33 51.34 -3.66 50.68 -4 50 C-4.66 50.66 -5.32 51.32 -6 52 C-7.13134632 48.04345311 -8.25389455 44.08445974 -9.375 40.125 C-9.69210938 39.01640625 -10.00921875 37.9078125 -10.3359375 36.765625 C-12.91604519 27.62774359 -15.31207388 18.91576776 -15.125 9.375 C-15.10695312 8.16585937 -15.08890625 6.95671875 -15.0703125 5.7109375 C-15.04710937 4.81632812 -15.02390625 3.92171875 -15 3 C-12.93399864 6.09900203 -12.801356 6.8634412 -12.6875 10.375 C-12.34361965 13.83071568 -11.97675865 15.03558831 -10 18.0625 C-6.45951916 20.34906054 -4.24579894 20.7395256 -0.09375 20.4765625 C2.24613068 20.09995793 2.24613068 20.09995793 4.5625 18 C6.39619773 14.17315257 6.8608442 11.16918661 6 7 C4.25590249 4.1099784 4.25590249 4.1099784 2 2 C1.34 1.34 0.68 0.68 0 0 Z " fill="#533D36" transform="translate(76,82)"/>
<path d="M0 0 C0.99 0.99 1.98 1.98 3 3 C5.95518253 3.38249489 5.95518253 3.38249489 9.3125 3.22265625 C10.55257812 3.20396484 11.79265625 3.18527344 13.0703125 3.16601562 C14.36710937 3.13185547 15.66390625 3.09769531 17 3.0625 C19.56230411 3.00264498 22.1248295 2.95144668 24.6875 2.91015625 C26.39486328 2.86580444 26.39486328 2.86580444 28.13671875 2.82055664 C31 3 31 3 34 5 C34.33 5 34.66 5 35 5 C38.48419239 5.62217721 41.09848851 6.98506147 44 9 C44 9.66 44 10.32 44 11 C44.66 11 45.32 11 46 11 C46.495 15.95 46.495 15.95 47 21 C46.443125 20.2575 45.88625 19.515 45.3125 18.75 C40.75078588 13.32525889 35.46985021 9.39429248 28.27661133 8.75976562 C25.19997588 8.70552966 22.13865723 8.73803064 19.0625 8.8125 C17.46438477 8.83280273 17.46438477 8.83280273 15.83398438 8.85351562 C13.22212412 8.88865276 10.61133366 8.93784816 8 9 C8.65484375 9.73605469 9.3096875 10.47210938 9.984375 11.23046875 C12.85002051 15.16795453 12.32118922 17.26245902 12 22 C2.50538504 27.00520949 -7.34644576 31.58560429 -18.26171875 28.32421875 C-20.1875 27.5 -20.1875 27.5 -23 26 C-22.01 25.67 -21.02 25.34 -20 25 C-19.34 25.33 -18.68 25.66 -18 26 C-15.75174913 26.09800068 -13.50038076 26.12974764 -11.25 26.125 C-10.03828125 26.12757812 -8.8265625 26.13015625 -7.578125 26.1328125 C-4.29025367 26.01077361 -1.22593463 25.62341681 2 25 C2 23.02 2 21.04 2 19 C0.83984375 19.2165625 0.83984375 19.2165625 -0.34375 19.4375 C-16.9140625 22.390625 -16.9140625 22.390625 -22 19 C-19.26666414 17.63333207 -17.17614982 18.01524641 -14.125 18.125 C-7.58298168 18.16866197 -1.04883706 17.67948485 5 15 C6.37195713 13.00009897 6.37195713 13.00009897 7 11 C4.69 11.33 2.38 11.66 0 12 C0 8.04 0 4.08 0 0 Z M9 4 C9 4.33 9 4.66 9 5 C15.93 5 22.86 5 30 5 C30 4.67 30 4.34 30 4 C23.07 4 16.14 4 9 4 Z M4 5 C4 5.33 4 5.66 4 6 C5.65 6 7.3 6 9 6 C9 5.67 9 5.34 9 5 C7.35 5 5.7 5 4 5 Z " fill="#391716" transform="translate(98,41)"/>
<path d="M0 0 C2.64 0 5.28 0 8 0 C8 1.32 8 2.64 8 4 C7.04480469 4.3403125 6.08960938 4.680625 5.10546875 5.03125 C-12.81204422 11.64884372 -24.07655932 21.87435813 -32.3359375 39.03515625 C-34.09132559 42.93352368 -35.07965082 46.83053933 -36 51 C-36.33 51 -36.66 51 -37 51 C-36.94877773 39.42376706 -31.66353936 30.47525936 -24.41796875 21.7421875 C-22.93217724 20.04581599 -22.93217724 20.04581599 -22 18 C-29.82005823 19.71420901 -35.06677293 22.6733296 -41 28 C-41.65226562 28.57105469 -42.30453125 29.14210937 -42.9765625 29.73046875 C-49.5068737 35.80226873 -52.15815498 42.40472325 -54 51 C-54.99 51 -55.98 51 -57 51 C-55.20833097 39.891652 -50.16393572 32.57628088 -41.953125 25.0078125 C-39.92367291 23.12767084 -39.92367291 23.12767084 -38.921875 20.81640625 C-38 19 -38 19 -35 17.8125 C-34.01 17.544375 -33.02 17.27625 -32 17 C-31.34 16.67 -30.68 16.34 -30 16 C-27 15 -27 15 -23.5 14.5625 C-19.31783125 13.89036574 -17.63807883 12.67352765 -14.75 9.625 C-10.47418901 5.54354406 -5.99971136 2.72723774 0 2 C0 1.34 0 0.68 0 0 Z M3 1 C2.01 1.66 1.02 2.32 0 3 C1.65 2.67 3.3 2.34 5 2 C4.34 1.67 3.68 1.34 3 1 Z " fill="#412120" transform="translate(88,149)"/>
<path d="M0 0 C2.95115708 2.58226244 3.84210667 4.15790225 4.5625 8 C3.78056289 12.17033126 2.44652326 13.55871269 -1 16 C-4.87554073 16.88254888 -8.00057583 16.5746689 -11.5 14.5625 C-13.73423898 10.74567508 -13.89149273 7.30756664 -13 3 C-9.43542918 -1.6784992 -5.26768382 -1.89152739 0 0 Z " fill="#4B1F19" transform="translate(78,85)"/>
<path d="M0 0 C3.65813817 0.28139524 6.31896306 0.56343786 9.4375 2.5625 C11.73566228 6.14763316 11.28061483 8.79077755 11 13 C1.50538504 18.00520949 -8.34644576 22.58560429 -19.26171875 19.32421875 C-21.1875 18.5 -21.1875 18.5 -24 17 C-23.01 16.67 -22.02 16.34 -21 16 C-20.34 16.33 -19.68 16.66 -19 17 C-16.75174913 17.09800068 -14.50038076 17.12974764 -12.25 17.125 C-11.03828125 17.12757812 -9.8265625 17.13015625 -8.578125 17.1328125 C-5.29025367 17.01077361 -2.22593463 16.62341681 1 16 C1 14.02 1 12.04 1 10 C-0.16015625 10.2165625 -0.16015625 10.2165625 -1.34375 10.4375 C-17.9140625 13.390625 -17.9140625 13.390625 -23 10 C-20.26666414 8.63333207 -18.17614982 9.01524641 -15.125 9.125 C-8.58298168 9.16866197 -2.04883706 8.67948485 4 6 C5.37195713 4.00009897 5.37195713 4.00009897 6 2 C4.02 2 2.04 2 0 2 C0 1.34 0 0.68 0 0 Z " fill="#685A5B" transform="translate(99,50)"/>
<path d="M0 0 C0 1.65 0 3.3 0 5 C-19.8850568 12.31725405 -19.8850568 12.31725405 -30.77734375 11.97265625 C-32.97372205 11.74093708 -32.97372205 11.74093708 -34 13 C-35.99958364 13.04080783 -38.00045254 13.04254356 -40 13 C-40.33 11.35 -40.66 9.7 -41 8 C-40.44763672 7.96559814 -39.89527344 7.93119629 -39.32617188 7.89575195 C-26.42374967 7.03389794 -12.03089759 0 0 0 Z " fill="#EAAA3B" transform="translate(114,109)"/>
<path d="M0 0 C7.73512476 -0.2975048 7.73512476 -0.2975048 11 2 C13.4294516 5.6441774 13.16179575 7.71241272 13 12 C8.82561234 14.38536438 5.83415572 15.6445541 1 15 C-0.875 14 -0.875 14 -2 12 C-2.36302306 7.42590939 -2.62404613 3.93606919 0 0 Z " fill="#4A1F19" transform="translate(98,84)"/>
<path d="M0 0 C2.95052138 0.31897528 4.54890092 0.52844535 6.63671875 2.7109375 C9.10896594 6.86204597 8.74160865 11.33460741 8 16 C6.33980142 19.17282395 4.24819734 21.37590133 1 23 C-4.14448526 23.38826304 -6.72771892 22.79426301 -11 20 C-9.19010705 30.40502686 -9.19010705 30.40502686 -6.8125 40.6875 C-6.09221379 43.62405148 -5.81239407 45.99830504 -6 49 C-7.63936956 45.98089752 -8.6169345 43.07714031 -9.47265625 39.75390625 C-9.73240234 38.75166016 -9.99214844 37.74941406 -10.25976562 36.71679688 C-10.52466797 35.67587891 -10.78957031 34.63496094 -11.0625 33.5625 C-11.33126953 32.52544922 -11.60003906 31.48839844 -11.87695312 30.41992188 C-13.69831626 23.34794582 -15.13114147 17.03213687 -15.0625 9.6875 C-15.05347656 8.43324219 -15.04445312 7.17898437 -15.03515625 5.88671875 C-15.01775391 4.45779297 -15.01775391 4.45779297 -15 3 C-12.93399864 6.09900203 -12.801356 6.8634412 -12.6875 10.375 C-12.34361965 13.83071568 -11.97675865 15.03558831 -10 18.0625 C-6.45951916 20.34906054 -4.24579894 20.7395256 -0.09375 20.4765625 C2.24613068 20.09995793 2.24613068 20.09995793 4.5625 18 C6.39619773 14.17315257 6.8608442 11.16918661 6 7 C4.25590249 4.1099784 4.25590249 4.1099784 2 2 C1.34 1.34 0.68 0.68 0 0 Z " fill="#371B1A" transform="translate(76,82)"/>
<path d="M0 0 C0.33 1.98 0.66 3.96 1 6 C2.98 6.66 4.96 7.32 7 8 C7 8.99 7 9.98 7 11 C7.66 11 8.32 11 9 11 C9 10.01 9 9.02 9 8 C10.98 7.67 12.96 7.34 15 7 C15 8.32 15 9.64 15 11 C14.01 11 13.02 11 12 11 C12 11.66 12 12.32 12 13 C5.21395316 13.37545751 0.19625176 12.87683117 -6 10 C-8 8 -8 8 -8.25 5.5 C-8 3 -8 3 -6 1 C-3.90200436 0.34437636 -2.19959601 0 0 0 Z " fill="#877E80" transform="translate(95,155)"/>
<path d="M0 0 C0.66 0.33 1.32 0.66 2 1 C1.66266846 1.4626123 1.32533691 1.92522461 0.9777832 2.40185547 C-8.00416521 14.60483821 -8.00416521 14.60483821 -15 28 C-15.99 28 -16.98 28 -18 28 C-17.39430997 16.8956828 -12.01358149 10.55292474 -4.20703125 2.96875 C-2 1 -2 1 0 0 Z " fill="#CFCFD0" transform="translate(52,172)"/>
<path d="M0 0 C0 1.32 0 2.64 0 4 C-2.75078884 4.91692961 -4.35948913 5.10886083 -7.1875 5.0625 C-9.0746875 5.0315625 -9.0746875 5.0315625 -11 5 C-11.33 7.31 -11.66 9.62 -12 12 C-14.31 11.67 -16.62 11.34 -19 11 C-19.33 7.7 -19.66 4.4 -20 1 C-18.80375 1.020625 -17.6075 1.04125 -16.375 1.0625 C-10.84205056 1.07224111 -5.55532551 -0.13226965 0 0 Z " fill="#B47A2F" transform="translate(94,122)"/>
<path d="M0 0 C3.37462715 0.54723683 5.08235 1.0549 8 3 C7.07380859 3.20302734 7.07380859 3.20302734 6.12890625 3.41015625 C-0.93184754 5.20489884 -5.61157062 8.16243236 -11 13 C-11.65226562 13.57105469 -12.30453125 14.14210937 -12.9765625 14.73046875 C-19.5068737 20.80226873 -22.15815498 27.40472325 -24 36 C-24.99 36 -25.98 36 -27 36 C-25.20833097 24.891652 -20.16393572 17.57628088 -11.953125 10.0078125 C-9.92367291 8.12767084 -9.92367291 8.12767084 -8.921875 5.81640625 C-8 4 -8 4 -5 2.8125 C-4.01 2.544375 -3.02 2.27625 -2 2 C-1.34 1.67 -0.68 1.34 0 1 C0 0.67 0 0.34 0 0 Z " fill="#422222" transform="translate(58,164)"/>
<path d="M0 0 C2 3 2 3 3 5 C3.61875 4.360625 4.2375 3.72125 4.875 3.0625 C7.01260116 0.98776946 7.98327003 0.05104066 10.9453125 -0.09765625 C12.96354167 -0.06510417 14.98177083 -0.03255208 17 0 C17.268125 0.5775 17.53625 1.155 17.8125 1.75 C18.89725207 4.04128133 18.89725207 4.04128133 20.625 5.75 C22.67407214 9.10302714 22.74136058 12.24281338 22 16 C20.69437213 18.98969861 19.67978698 19.81241879 17 22 C13.85239319 22.73994373 11.15451739 22.68576465 8 22 C5.12970131 20.20606332 3.50868362 19.01736724 2 16 C1.60772162 13.29127482 1.25430502 10.59248307 0.9375 7.875 C0.84662109 7.12089844 0.75574219 6.36679688 0.66210938 5.58984375 C0.43809148 3.72695812 0.21861427 1.86352748 0 0 Z M6 4.375 C3.47823024 7.68482281 3.32767237 9.79063156 3.58984375 13.87109375 C3.91107813 16.17409348 3.91107813 16.17409348 5.5 18.5625 C8.99942417 20.5746689 12.12445927 20.88254888 16 20 C19.44652326 17.55871269 20.78056289 16.17033126 21.5625 12 C20.84210667 8.15790225 19.95115708 6.58226244 17 4 C12.87610939 2.51918751 9.98563511 2.54825057 6 4.375 Z " fill="#5A5B5D" transform="translate(61,81)"/>
<path d="M0 0 C-0.265625 1.89453125 -0.265625 1.89453125 -1 4 C-2.671875 5.01171875 -2.671875 5.01171875 -4.75 5.6875 C-5.42546875 5.91824219 -6.1009375 6.14898437 -6.796875 6.38671875 C-11.45153461 7.68243073 -15.786434 8.18326116 -20.625 8.25 C-21.75164062 8.27578125 -22.87828125 8.3015625 -24.0390625 8.328125 C-27 8 -27 8 -28.8984375 6.484375 C-29.26195313 5.99453125 -29.62546875 5.5046875 -30 5 C-29.67 4.34 -29.34 3.68 -29 3 C-25.5 2.3125 -25.5 2.3125 -22 2 C-21.67 2.33 -21.34 2.66 -21 3 C-12.9212239 3.77795622 -7.55438982 -0.52705045 0 0 Z " fill="#BABABC" transform="translate(105,52)"/>
<path d="M0 0 C0.33 0.66 0.66 1.32 1 2 C3.02463255 2.65213292 3.02463255 2.65213292 5 3 C3.25183142 3.50636607 1.50137737 4.00484619 -0.25 4.5 C-1.22453125 4.7784375 -2.1990625 5.056875 -3.203125 5.34375 C-6 6 -6 6 -10 6 C-9.67 7.98 -9.34 9.96 -9 12 C-6.95632428 11.40266451 -4.91513957 10.79680343 -2.875 10.1875 C-1.16957031 9.68283203 -1.16957031 9.68283203 0.5703125 9.16796875 C7.27037712 6.93699381 7.27037712 6.93699381 12 2 C12.4375 4.1875 12.4375 4.1875 12 7 C3.01435141 15.37299073 -8.19638052 16.5137934 -19.921875 16.140625 C-20.93765625 16.09421875 -21.9534375 16.0478125 -23 16 C-23 15.67 -23 15.34 -23 15 C-22.31292969 14.93941406 -21.62585938 14.87882813 -20.91796875 14.81640625 C-20.01691406 14.73261719 -19.11585937 14.64882812 -18.1875 14.5625 C-16.84751953 14.44068359 -16.84751953 14.44068359 -15.48046875 14.31640625 C-12.87256441 14.06510233 -12.87256441 14.06510233 -10 13 C-10.33 12.34 -10.66 11.68 -11 11 C-11.06950541 9.45976004 -11.08452357 7.91665012 -11.0625 6.375 C-11.05347656 5.55773437 -11.04445313 4.74046875 -11.03515625 3.8984375 C-11.02355469 3.27195312 -11.01195313 2.64546875 -11 2 C-10.34 2.66 -9.68 3.32 -9 4 C-6.77871445 4.02308597 -6.77871445 4.02308597 -4.375 3.625 C-3.14910156 3.45871094 -3.14910156 3.45871094 -1.8984375 3.2890625 C-1.27195312 3.19367188 -0.64546875 3.09828125 0 3 C0 2.01 0 1.02 0 0 Z " fill="#5D3F29" transform="translate(106,121)"/>
<path d="M0 0 C0.99 0.33 1.98 0.66 3 1 C2.61274545 6.80881831 0.69495728 11.2315849 -1.84375 16.44921875 C-2.84312944 18.65393083 -3.51341101 20.63893753 -4 23 C-5.65 23 -7.3 23 -9 23 C-8.85312929 15.6564644 -5.38028571 5.38028571 0 0 Z " fill="#D0D0D1" transform="translate(61,177)"/>
<path d="M0 0 C0 1.65 0 3.3 0 5 C-12.23665298 11.39784394 -12.23665298 11.39784394 -19 11 C-19.33 9.02 -19.66 7.04 -20 5 C-16.85468901 4.16468645 -13.70866743 3.33208145 -10.5625 2.5 C-9.66466797 2.26152344 -8.76683594 2.02304688 -7.84179688 1.77734375 C-6.98779297 1.55175781 -6.13378906 1.32617188 -5.25390625 1.09375 C-4.46314697 0.88427734 -3.6723877 0.67480469 -2.85766602 0.45898438 C-1 0 -1 0 0 0 Z " fill="#F5E930" transform="translate(116,122)"/>
<path d="M0 0 C2.475 0.99 2.475 0.99 5 2 C3.93788265 4.77784537 2.79059809 7.41042774 1.4375 10.0625 C-0.06388376 12.80809903 -0.06388376 12.80809903 -0.4375 15.25 C-1 17 -1 17 -2.875 18.0625 C-3.926875 18.5265625 -3.926875 18.5265625 -5 19 C-6.70921589 20.5412312 -6.70921589 20.5412312 -8 22 C-8.25729993 17.34078514 -7.53839041 14.1446056 -5.6875 9.875 C-5.25824219 8.86179687 -4.82898438 7.84859375 -4.38671875 6.8046875 C-3.13047413 4.26388851 -1.78606587 2.18937106 0 0 Z " fill="#CCCBCC" transform="translate(71,65)"/>
<path d="M0 0 C3.01492276 0.93953407 5.53712962 1.9995461 8 4 C9.28815935 7.28738266 9.73217057 10.49143449 10 14 C8.35 14 6.7 14 5 14 C5.33 15.03125 5.66 16.0625 6 17.125 C6.9715192 20.48426709 7.17116771 23.49106202 7 27 C4.63290845 24.63290845 4.43136989 23.32735176 3.7109375 20.09765625 C3.49179688 19.12505859 3.27265625 18.15246094 3.046875 17.15039062 C2.82515625 16.13138672 2.6034375 15.11238281 2.375 14.0625 C2.14554687 13.04736328 1.91609375 12.03222656 1.6796875 10.98632812 C0 3.43273344 0 3.43273344 0 0 Z " fill="#CDCDCE" transform="translate(64,101)"/>
<path d="M0 0 C0.33 1.98 0.66 3.96 1 6 C-2.33643345 7.42990005 -5.44111769 8.33009274 -9 9 C-10.32451172 9.26490234 -10.32451172 9.26490234 -11.67578125 9.53515625 C-14.1171875 10.0234375 -16.55859375 10.51171875 -19 11 C-19 9.35 -19 7.7 -19 6 C-17.41058594 5.47599609 -17.41058594 5.47599609 -15.7890625 4.94140625 C-14.40101541 4.48185012 -13.01299601 4.02221036 -11.625 3.5625 C-10.57699219 3.21735352 -10.57699219 3.21735352 -9.5078125 2.86523438 C-0.87058424 0 -0.87058424 0 0 0 Z " fill="#EDA63D" transform="translate(115,115)"/>
<path d="M0 0 C4.27634715 0.84064944 6.22343209 2.606417 9 6 C9.56504413 8.96648169 9.46296399 10.25411357 7.875 12.8125 C5.22464043 14.49106106 3.06753576 14.20450238 0 14 C-1.10370043 10.6888987 -0.92673641 8.75251051 -0.5625 5.3125 C-0.46066406 4.31863281 -0.35882813 3.32476562 -0.25390625 2.30078125 C-0.17011719 1.54152344 -0.08632812 0.78226563 0 0 Z " fill="#A5A7A9" transform="translate(112,150)"/>
<path d="M0 0 C0.33 0.66 0.66 1.32 1 2 C2.155 2.165 3.31 2.33 4.5 2.5 C5.655 2.665 6.81 2.83 8 3 C8.33 3.66 8.66 4.32 9 5 C6.31288247 6.34355876 4.60627816 5.87940752 1.625 5.5625 C-9.7741858 4.36678278 -9.7741858 4.36678278 -21 6 C-19.9375 3.0625 -19.9375 3.0625 -18 0 C-12.31836576 -1.7755107 -5.79842301 -1.15366548 0 0 Z " fill="#361312" transform="translate(173,155)"/>
<path d="M0 0 C0 2.31 0 4.62 0 7 C-5.16569441 8.79217969 -8.51053913 9.12029814 -14 8 C-14 6.02 -14 4.04 -14 2 C-12.04200486 1.66468585 -10.08359226 1.33180857 -8.125 1 C-6.48917969 0.7215625 -6.48917969 0.7215625 -4.8203125 0.4375 C-2 0 -2 0 0 0 Z " fill="#6C6C6E" transform="translate(111,145)"/>
<path d="M0 0 C0.375 2.25 0.375 2.25 0 5 C-3.48556762 8.30682057 -6.19065229 9.24259977 -10.875 9.25 C-12.25105487 9.18641991 -13.62686409 9.10985087 -15 9 C-15.66 7.02 -16.32 5.04 -17 3 C-16.18015625 2.95101562 -15.3603125 2.90203125 -14.515625 2.8515625 C-13.43796875 2.77679688 -12.3603125 2.70203125 -11.25 2.625 C-10.18265625 2.55539063 -9.1153125 2.48578125 -8.015625 2.4140625 C-5.28393568 2.03898599 -2.53792488 0 0 0 Z " fill="#A09FA2" transform="translate(97,43)"/>
<path d="M0 0 C0 1.65 0 3.3 0 5 C-2.22582389 5.84334329 -4.45496026 6.67478551 -6.6875 7.5 C-7.62625977 7.85771484 -7.62625977 7.85771484 -8.58398438 8.22265625 C-12.18192299 9.5412725 -15.16520253 10.29329235 -19 10 C-19 8.68 -19 7.36 -19 6 C-16.20964954 4.99619084 -13.41785145 3.9968055 -10.625 3 C-9.43390625 2.57074219 -9.43390625 2.57074219 -8.21875 2.1328125 C-7.45820312 1.86210938 -6.69765625 1.59140625 -5.9140625 1.3125 C-4.8614624 0.93544922 -4.8614624 0.93544922 -3.78759766 0.55078125 C-2 0 -2 0 0 0 Z " fill="#E8DB2E" transform="translate(114,109)"/>
<path d="M0 0 C4.29 0 8.58 0 13 0 C13 1.98 13 3.96 13 6 C8.66825536 8.23150482 5.71784771 7.97917594 1 7 C0.34 6.67 -0.32 6.34 -1 6 C-0.67 4.02 -0.34 2.04 0 0 Z " fill="#6A6B6D" transform="translate(97,154)"/>
<path d="M0 0 C-0.33 1.98 -0.66 3.96 -1 6 C6.02782042 7.0390717 6.02782042 7.0390717 13 6 C12.67 3.69 12.34 1.38 12 -1 C12.66 -1 13.32 -1 14 -1 C14.16802051 0.45817797 14.33437143 1.9165484 14.5 3.375 C14.5928125 4.18710938 14.685625 4.99921875 14.78125 5.8359375 C15 8 15 8 15 10 C16.32 10 17.64 10 19 10 C19 10.66 19 11.32 19 12 C14.545 12.495 14.545 12.495 10 13 C10.99 12.67 11.98 12.34 13 12 C13 10.68 13 9.36 13 8 C11.02 8.33 9.04 8.66 7 9 C7 9.99 7 10.98 7 12 C6.34 12 5.68 12 5 12 C5 11.01 5 10.02 5 9 C4.030625 8.855625 3.06125 8.71125 2.0625 8.5625 C-1 8 -1 8 -2 7 C-2.04080783 5.00041636 -2.04254356 2.99954746 -2 1 C-3.32 1.33 -4.64 1.66 -6 2 C-6.33 1.34 -6.66 0.68 -7 0 C-3.86650268 -1.04449911 -3.01031744 -0.93423645 0 0 Z " fill="#554041" transform="translate(97,154)"/>
<path d="M0 0 C0.33 0.99 0.66 1.98 1 3 C-5.24309927 5.77471079 -10.19796625 6.37634203 -17 6 C-17 5.01 -17 4.02 -17 3 C-11.42531458 -0.61601216 -6.39432346 -0.30720059 0 0 Z " fill="#B3B0B2" transform="translate(96,39)"/>
<path d="M0 0 C3.63 0 7.26 0 11 0 C11.33 1.98 11.66 3.96 12 6 C8.04 6 4.08 6 0 6 C0 4.02 0 2.04 0 0 Z " fill="#F8AF40" transform="translate(84,128)"/>
<path d="M0 0 C10.05388369 1.16139691 10.05388369 1.16139691 13.75 4.4375 C15 7 15 7 14 10 C13.7525 9.195625 13.505 8.39125 13.25 7.5625 C12.29128946 4.92559077 12.29128946 4.92559077 10.3125 4.1875 C4.55433645 3.35419515 4.55433645 3.35419515 -0.609375 5.22265625 C-2.24365011 7.31140674 -2.91700983 9.15588944 -3.6875 11.6875 C-3.93886719 12.49574219 -4.19023438 13.30398437 -4.44921875 14.13671875 C-4.63097656 14.75160156 -4.81273438 15.36648437 -5 16 C-5.33 16 -5.66 16 -6 16 C-6.45826062 10.2717423 -5.55825861 7.5001506 -2 3 C-1.34 2.34 -0.68 1.68 0 1 C0 0.67 0 0.34 0 0 Z " fill="#5A595A" transform="translate(97,81)"/>
<path d="M0 0 C2.95052138 0.31897528 4.54890092 0.52844535 6.63671875 2.7109375 C9.10896594 6.86204597 8.74160865 11.33460741 8 16 C6.33980142 19.17282395 4.24819734 21.37590133 1 23 C-4.23115287 23.40239637 -7.52496176 22.77026177 -12 20 C-12.33 19.34 -12.66 18.68 -13 18 C-10.83125748 18.50603992 -9.00032373 18.99983813 -7 20 C-3.94094019 20.41338646 -1.05467898 20.46661171 2 20 C4.70879965 17.8858149 5.7230135 16.44616111 6.37109375 13.0625 C6.61067765 9.22915761 6.26502736 7.40637529 4.125 4.125 C3.42375 3.42375 2.7225 2.7225 2 2 C1.34 1.34 0.68 0.68 0 0 Z " fill="#482D2D" transform="translate(76,82)"/>
<path d="M0 0 C0 1.65771778 -0.01126303 3.31599051 -0.0703125 4.97265625 C-0.12287305 6.98121994 -0.06375364 8.99176042 0 11 C1.87046826 13.29926298 1.87046826 13.29926298 4.875 13.25 C7.85596832 13.01152253 9.4892558 12.54507335 12 11 C12 11.99 12 12.98 12 14 C8.31572341 16.45618439 5.27922232 16.69019715 1 16 C-2.06458538 13.95694308 -2.82153128 12.55920198 -3.9375 9.0625 C-4.01191483 5.41617314 -3.14714509 3.89038762 -1 1 C-0.67 0.67 -0.34 0.34 0 0 Z " fill="#403435" transform="translate(97,85)"/>
<path d="M0 0 C-0.33 1.32 -0.66 2.64 -1 4 C-1.66 4 -2.32 4 -3 4 C-3 4.66 -3 5.32 -3 6 C-6.3 6 -9.6 6 -13 6 C-13.66 4.68 -14.32 3.36 -15 2 C-14.06027344 1.90912109 -14.06027344 1.90912109 -13.1015625 1.81640625 C-11.87566406 1.69072266 -11.87566406 1.69072266 -10.625 1.5625 C-9.81289062 1.48128906 -9.00078125 1.40007813 -8.1640625 1.31640625 C-4.91207355 0.84093494 -3.56824114 0 0 0 Z " fill="#B61E25" transform="translate(97,50)"/>
<path d="M0 0 C0.103125 0.928125 0.20625 1.85625 0.3125 2.8125 C1.0070192 6.03254358 1.47740939 7.02579865 4 9 C3.01 9.33 2.02 9.66 1 10 C1 9.34 1 8.68 1 8 C0.34 8 -0.32 8 -1 8 C-1 8.66 -1 9.32 -1 10 C-3.4375 9.25 -3.4375 9.25 -6 8 C-6.8125 5.875 -6.8125 5.875 -7 4 C-2.25 0 -2.25 0 0 0 Z " fill="#A6A8AB" transform="translate(95,155)"/>
<path d="M0 0 C0.78117187 0.23009766 0.78117187 0.23009766 1.578125 0.46484375 C4.63278515 1.13982511 7.63015971 1.34411118 10.75 1.5625 C11.92046875 1.64628906 13.0909375 1.73007813 14.296875 1.81640625 C15.18890625 1.87699219 16.0809375 1.93757812 17 2 C16.67 2.66 16.34 3.32 16 4 C13.45058627 4.31241371 10.99638487 4.51303421 8.4375 4.625 C7.37112305 4.68300781 7.37112305 4.68300781 6.28320312 4.7421875 C4.52257575 4.83671783 2.76132272 4.91945817 1 5 C1.33 6.98 1.66 8.96 2 11 C1.01 11.495 1.01 11.495 0 12 C0 10.68 0 9.36 0 8 C-1.65 8.33 -3.3 8.66 -5 9 C-4.34 8.34 -3.68 7.68 -3 7 C-2.01 7 -1.02 7 0 7 C0 4.69 0 2.38 0 0 Z " fill="#361312" transform="translate(111,145)"/>
<path d="M0 0 C3.94087458 -0.55172244 7.47683092 -0.97852074 10.93359375 1.2421875 C14.69047656 5.15222861 15.65858137 8.53644837 15.6015625 13.88671875 C14.78931303 16.74014059 13.19029108 18.06713357 11 20 C11.10699219 19.10796875 11.21398437 18.2159375 11.32421875 17.296875 C11.44410156 16.12640625 11.56398438 14.9559375 11.6875 13.75 C11.81511719 12.58984375 11.94273438 11.4296875 12.07421875 10.234375 C12.23365556 7.04320202 12.23365556 7.04320202 10.8125 4.65625 C8.64407479 2.674758 7.18727795 2.24996138 4.3125 1.75 C3.50425781 1.60046875 2.69601563 1.4509375 1.86328125 1.296875 C1.24839844 1.19890625 0.63351563 1.1009375 0 1 C0 0.67 0 0.34 0 0 Z " fill="#4F3B3B" transform="translate(99,81)"/>
<path d="M0 0 C0 1.65771778 -0.01126303 3.31599051 -0.0703125 4.97265625 C-0.12287305 6.98121994 -0.06375364 8.99176042 0 11 C1.76136355 13.18331689 1.76136355 13.18331689 3.9453125 13.1953125 C6.97265625 13.09765625 6.97265625 13.09765625 10 13 C10.33 13.66 10.66 14.32 11 15 C7.78897726 16.60551137 4.48300792 16.46807221 1 16 C-1.5 14.5625 -1.5 14.5625 -3 12 C-3.48207192 8.93025468 -3.62382717 6.05169509 -3 3 C-1.47265625 1.22265625 -1.47265625 1.22265625 0 0 Z " fill="#3F3031" transform="translate(68,85)"/>
<path d="M0 0 C0 1.65 0 3.3 0 5 C-2.97 6.32 -5.94 7.64 -9 9 C-9.12375 8.195625 -9.2475 7.39125 -9.375 6.5625 C-9.684375 5.2940625 -9.684375 5.2940625 -10 4 C-10.66 3.67 -11.32 3.34 -12 3 C-10.18792288 2.49846959 -8.37532624 1.99881588 -6.5625 1.5 C-5.55316406 1.2215625 -4.54382813 0.943125 -3.50390625 0.65625 C-1 0 -1 0 0 0 Z " fill="#DD9F38" transform="translate(116,122)"/>
<path d="M0 0 C1.85135296 4.8135177 3.11851354 9.81503243 3 15 C2.01 16.485 2.01 16.485 1 18 C0.67 17.01 0.34 16.02 0 15 C-2.01508358 14.26676204 -2.01508358 14.26676204 -4 14 C-2.35 13.67 -0.7 13.34 1 13 C0.67 11.02 0.34 9.04 0 7 C-1.65 7.66 -3.3 8.32 -5 9 C-5.33 8.34 -5.66 7.68 -6 7 C-4.35 6.67 -2.7 6.34 -1 6 C-1 4.35 -1 2.7 -1 1 C-2.98 1.66 -4.96 2.32 -7 3 C-7 2.34 -7 1.68 -7 1 C-4 0 -4 0 0 0 Z " fill="#6A4B25" transform="translate(115,108)"/>
<path d="M0 0 C2 3 2 3 3 5 C3.61875 4.360625 4.2375 3.72125 4.875 3.0625 C7.01260116 0.98776946 7.98327003 0.05104066 10.9453125 -0.09765625 C12.96354167 -0.06510417 14.98177083 -0.03255208 17 0 C15 2 15 2 12.125 2.375 C8.3694712 3.12610576 7.20737119 3.89332944 5 7 C4.19234122 10.64721696 4.19234122 10.64721696 4 14 C3.67 14 3.34 14 3 14 C2.49307308 12.4188708 1.99473557 10.83498617 1.5 9.25 C1.2215625 8.36828125 0.943125 7.4865625 0.65625 6.578125 C0 4 0 4 0 0 Z " fill="#584A4B" transform="translate(61,81)"/>
<path d="M0 0 C0 1.32 0 2.64 0 4 C-2.75078884 4.91692961 -4.35948913 5.10886083 -7.1875 5.0625 C-9.0746875 5.0315625 -9.0746875 5.0315625 -11 5 C-11.33 3.68 -11.66 2.36 -12 1 C-7.93631321 0.22596442 -4.13574827 -0.0984702 0 0 Z " fill="#F6ED31" transform="translate(94,122)"/>
<path d="M0 0 C4.26474248 0.47386028 6.35752899 2.77031321 9 6 C9.5 8.625 9.5 8.625 9 11 C7.5 12.8125 7.5 12.8125 6 14 C4 13 4 13 3 10 C3.99 10 4.98 10 6 10 C6.33 8.35 6.66 6.7 7 5 C4.69 5 2.38 5 0 5 C0 3.35 0 1.7 0 0 Z " fill="#7C7072" transform="translate(112,150)"/>
<path d="M0 0 C2.64 0 5.28 0 8 0 C8 1.32 8 2.64 8 4 C3.05 5.485 3.05 5.485 -2 7 C-2.33 6.01 -2.66 5.02 -3 4 C-2.67 3.34 -2.34 2.68 -2 2 C-1.34 2 -0.68 2 0 2 C0 1.34 0 0.68 0 0 Z M3 1 C2.01 1.66 1.02 2.32 0 3 C1.65 2.67 3.3 2.34 5 2 C4.34 1.67 3.68 1.34 3 1 Z " fill="#351413" transform="translate(88,149)"/>
<path d="M0 0 C0 1.65 0 3.3 0 5 C-2.97 5.66 -5.94 6.32 -9 7 C-9 5.35 -9 3.7 -9 2 C-3.375 0 -3.375 0 0 0 Z " fill="#F6AE3F" transform="translate(105,119)"/>
<path d="M0 0 C2.87900032 2.87900032 2.48242805 5.23642082 2.75 9.25 C2.84796875 10.55453125 2.9459375 11.8590625 3.046875 13.203125 C3.00072279 16.94145403 2.39022453 19.55652079 1 23 C0.34 22.67 -0.32 22.34 -1 22 C-1 21.34 -1 20.68 -1 20 C-0.34 20 0.32 20 1 20 C0.835 18.9275 0.67 17.855 0.5 16.75 C-0.21160726 11.17741358 -0.08411046 5.60736426 0 0 Z " fill="#371413" transform="translate(152,106)"/>
<path d="M0 0 C0 1.65 0 3.3 0 5 C-4.43076923 7.09230769 -4.43076923 7.09230769 -7.3125 6.625 C-7.869375 6.41875 -8.42625 6.2125 -9 6 C-9 5.01 -9 4.02 -9 3 C-2.25 0 -2.25 0 0 0 Z " fill="#F4E930" transform="translate(114,109)"/>
<path d="M0 0 C-0.1875 1.875 -0.1875 1.875 -1 4 C-3.25 5.375 -3.25 5.375 -6 6 C-8.8125 5.125 -8.8125 5.125 -11 4 C-7.26280719 0.48264206 -5.13496308 -0.47767098 0 0 Z " fill="#A3A3A6" transform="translate(105,52)"/>
<path d="M0 0 C0.80695313 0.15339844 1.61390625 0.30679688 2.4453125 0.46484375 C6.59047179 1.0888952 10.6922296 1.34627204 14.875 1.5625 C15.65875 1.60568359 16.4425 1.64886719 17.25 1.69335938 C19.16650649 1.79853351 21.08323333 1.89967925 23 2 C23 2.33 23 2.66 23 3 C20.10462723 3.2224897 17.20965101 3.42843154 14.3125 3.625 C13.49587891 3.68945312 12.67925781 3.75390625 11.83789062 3.8203125 C7.36853066 4.1098257 4.07410474 4.1739622 0 2 C0 1.34 0 0.68 0 0 Z " fill="#564644" transform="translate(74,133)"/>
<path d="M0 0 C0.33 0 0.66 0 1 0 C1.375 2.25 1.375 2.25 1 5 C-2.17170047 7.79411708 -4.13640336 8.93602988 -8.375 9.25 C-9.24125 9.1675 -10.1075 9.085 -11 9 C-8.66330145 7.11266655 -6.54966678 5.78807848 -3.8125 4.5 C-0.70295517 3.25596622 -0.70295517 3.25596622 0 0 Z " fill="#41221F" transform="translate(117,123)"/>
<path d="M0 0 C3.63 0 7.26 0 11 0 C11.33 0.99 11.66 1.98 12 3 C9.35261084 4.4606285 8.10551666 5 5 5 C5 3.68 5 2.36 5 1 C3.35 1 1.7 1 0 1 C0 0.67 0 0.34 0 0 Z " fill="#9C999B" transform="translate(85,39)"/>
<path d="M0 0 C0.33 0 0.66 0 1 0 C0.39891424 5.65020618 -1.07528683 10.66164461 -3 16 C-3.33 16 -3.66 16 -4 16 C-4.5326514 9.741346 -2.81849506 5.54891215 0 0 Z " fill="#462726" transform="translate(66,68)"/>
<path d="M0 0 C0.66 0.33 1.32 0.66 2 1 C1.34 1.66 0.68 2.32 0 3 C0.01382865 5.05714832 0.01382865 5.05714832 1 7 C2.9837767 8.28436734 2.9837767 8.28436734 5 9 C5 8.34 5 7.68 5 7 C5.66 7 6.32 7 7 7 C7.33 8.32 7.66 9.64 8 11 C3.88654141 10.53256152 0.88860945 10.11081018 -2 7 C-2.375 4.4375 -2.375 4.4375 -2 2 C-1.34 1.34 -0.68 0.68 0 0 Z " fill="#6C5A5B" transform="translate(89,156)"/>
<path d="M0 0 C0.3125 2.3125 0.3125 2.3125 0 5 C-2.5 6.8125 -2.5 6.8125 -5 8 C-5.33 6.35 -5.66 4.7 -6 3 C-1.125 0 -1.125 0 0 0 Z " fill="#747577" transform="translate(97,43)"/>
<path d="M0 0 C0.99 1.485 0.99 1.485 2 3 C2.9793879 4.02019573 3.97895449 5.02149805 5 6 C5.66 6.66 6.32 7.32 7 8 C6.34 9.32 5.68 10.64 5 12 C4.34 12 3.68 12 3 12 C-0.42857143 4.71428571 -0.42857143 4.71428571 0 0 Z " fill="#A8A7A9" transform="translate(71,129)"/>
<path d="M0 0 C1.98 0 3.96 0 6 0 C6 1.65 6 3.3 6 5 C3.03 4.505 3.03 4.505 0 4 C0 2.68 0 1.36 0 0 Z " fill="#FAB240" transform="translate(76,129)"/>
<path d="M0 0 C0.33 0.66 0.66 1.32 1 2 C3.32156597 2.40729228 5.6568787 2.74438677 8 3 C8 3.33 8 3.66 8 4 C6.02 4 4.04 4 2 4 C1.67 4.66 1.34 5.32 1 6 C1 5.34 1 4.68 1 4 C-1.31 4 -3.62 4 -6 4 C-6.33 4.66 -6.66 5.32 -7 6 C-6.67 4.68 -6.34 3.36 -6 2 C-3.03 2.495 -3.03 2.495 0 3 C0 2.01 0 1.02 0 0 Z " fill="#865F23" transform="translate(80,119)"/>
<path d="M0 0 C2.31 0.66 4.62 1.32 7 2 C7 2.99 7 3.98 7 5 C5.02 5 3.04 5 1 5 C0.67 3.35 0.34 1.7 0 0 Z " fill="#F2E730" transform="translate(73,117)"/>
<path d="M0 0 C0.66 0.66 1.32 1.32 2 2 C0.09598862 3.90401138 -1.33425686 4.93520439 -4.046875 5.19921875 C-6.03233273 5.1886578 -8.0169914 5.09915043 -10 5 C-10.33 4.34 -10.66 3.68 -11 3 C-10.28972656 2.86722656 -9.57945313 2.73445313 -8.84765625 2.59765625 C-7.92855469 2.42105469 -7.00945312 2.24445313 -6.0625 2.0625 C-4.68771484 1.80146484 -4.68771484 1.80146484 -3.28515625 1.53515625 C-1.04710156 1.22285012 -1.04710156 1.22285012 0 0 Z " fill="#3E2C2D" transform="translate(108,96)"/>
<path d="M0 0 C2.31 0 4.62 0 7 0 C7 1.32 7 2.64 7 4 C5.02 4 3.04 4 1 4 C0.67 2.68 0.34 1.36 0 0 Z " fill="#F7AE3F" transform="translate(74,123)"/>
<path d="M0 0 C0.12375 0.639375 0.2475 1.27875 0.375 1.9375 C0.684375 2.9584375 0.684375 2.9584375 1 4 C1.66 4.33 2.32 4.66 3 5 C0.36 5 -2.28 5 -5 5 C-4.67 4.01 -4.34 3.02 -4 2 C-4.66 1.67 -5.32 1.34 -6 1 C-4.02 0.67 -2.04 0.34 0 0 Z " fill="#DFA437" transform="translate(94,115)"/>
<path d="M0 0 C0.33 0 0.66 0 1 0 C1.2226746 1.43534841 1.42761906 2.87345525 1.625 4.3125 C1.74101563 5.11300781 1.85703125 5.91351563 1.9765625 6.73828125 C2 9 2 9 0 12 C-0.33 11.01 -0.66 10.02 -1 9 C-3.01508358 8.26676204 -3.01508358 8.26676204 -5 8 C-3.35 7.67 -1.7 7.34 0 7 C-0.185625 6.030625 -0.37125 5.06125 -0.5625 4.0625 C-0.706875 3.051875 -0.85125 2.04125 -1 1 C-0.67 0.67 -0.34 0.34 0 0 Z " fill="#73492D" transform="translate(116,114)"/>
<path d="M0 0 C0.66 0.33 1.32 0.66 2 1 C2 1.66 2 2.32 2 3 C3.32 3 4.64 3 6 3 C6 3.66 6 4.32 6 5 C1.545 5.495 1.545 5.495 -3 6 C-2.01 5.67 -1.02 5.34 0 5 C0 3.35 0 1.7 0 0 Z " fill="#6A5758" transform="translate(110,161)"/>
<path d="M0 0 C0 1.65 0 3.3 0 5 C-1.65 5.33 -3.3 5.66 -5 6 C-4.625 3.5625 -4.625 3.5625 -4 1 C-2 0 -2 0 0 0 Z " fill="#949093" transform="translate(95,155)"/>
<path d="M0 0 C-3.35327639 2.23551759 -3.90743657 2.17283528 -7.6875 1.625 C-8.49574219 1.51414063 -9.30398437 1.40328125 -10.13671875 1.2890625 C-10.75160156 1.19367187 -11.36648437 1.09828125 -12 1 C-12 0.67 -12 0.34 -12 0 C-7.74433453 -1.16063604 -4.3164922 -0.76173392 0 0 Z " fill="#C4C5C7" transform="translate(99,57)"/>
<path d="M0 0 C0.66 0.66 1.32 1.32 2 2 C1.625 5.625 1.625 5.625 1 9 C0.01 9 -0.98 9 -2 9 C-1.34 6.03 -0.68 3.06 0 0 Z " fill="#553837" transform="translate(33,191)"/>
<path d="M0 0 C-1.49097658 3.7952131 -3.75700849 5.61042731 -7 8 C-6.44414399 4.1090079 -4.34122117 0 0 0 Z " fill="#492A29" transform="translate(48,174)"/>
<path d="M0 0 C0 1.32 0 2.64 0 4 C-1.98 4 -3.96 4 -6 4 C-6 3.01 -6 2.02 -6 1 C-3.92446352 0.4465236 -2.15634036 0 0 0 Z " fill="#A4A6A9" transform="translate(110,162)"/>
<path d="M0 0 C2.97 0.495 2.97 0.495 6 1 C5.34 2.32 4.68 3.64 4 5 C3.34 5 2.68 5 2 5 C2 4.34 2 3.68 2 3 C1.01 2.67 0.02 2.34 -1 2 C-0.67 1.34 -0.34 0.68 0 0 Z " fill="#928E90" transform="translate(113,154)"/>
<path d="M0 0 C0.66 0 1.32 0 2 0 C2 2.31 2 4.62 2 7 C1.01 7 0.02 7 -1 7 C-1.04254356 5.00045254 -1.04080783 2.99958364 -1 1 C-0.67 0.67 -0.34 0.34 0 0 Z " fill="#575456" transform="translate(109,145)"/>
<path d="M0 0 C0.66 0.33 1.32 0.66 2 1 C2.25 6.625 2.25 6.625 0 10 C-0.66 10 -1.32 10 -2 10 C-1.34 6.7 -0.68 3.4 0 0 Z " fill="#3D2020" transform="translate(80,89)"/>
<path d="M0 0 C0.99 0.33 1.98 0.66 3 1 C3 3.31 3 5.62 3 8 C2.01 8.33 1.02 8.66 0 9 C0 6.03 0 3.06 0 0 Z " fill="#A9ADB0" transform="translate(114,88)"/>
<path d="M0 0 C2.31 0 4.62 0 7 0 C7 0.99 7 1.98 7 3 C5.02 3 3.04 3 1 3 C0.67 2.01 0.34 1.02 0 0 Z " fill="#BFC0C2" transform="translate(83,40)"/>
<path d="M0 0 C0 0.66 0 1.32 0 2 C0.66 2 1.32 2 2 2 C2 2.66 2 3.32 2 4 C-0.64 3.67 -3.28 3.34 -6 3 C-3.375 0 -3.375 0 0 0 Z " fill="#3E1D1D" transform="translate(174,157)"/>
<path d="M0 0 C0.33 0 0.66 0 1 0 C0.67 3.63 0.34 7.26 0 11 C-0.99 11 -1.98 11 -3 11 C-3 10.34 -3 9.68 -3 9 C-2.34 9 -1.68 9 -1 9 C-0.67 6.03 -0.34 3.06 0 0 Z " fill="#483030" transform="translate(154,117)"/>
<path d="M0 0 C0.33 0 0.66 0 1 0 C1 4.95 1 9.9 1 15 C0.67 15 0.34 15 0 15 C0 10.05 0 5.1 0 0 Z " fill="#361211" transform="translate(59,83)"/>
<path d="M0 0 C2.35333796 4.70667591 2.17102038 6.8693886 2 12 C1.67 12 1.34 12 1 12 C0.67 8.04 0.34 4.08 0 0 Z " fill="#361211" transform="translate(192,179)"/>
<path d="M0 0 C0.33 0 0.66 0 1 0 C1.33 3.3 1.66 6.6 2 10 C0.0044484 6.00889681 -0.19546065 4.30013434 0 0 Z " fill="#3B1817" transform="translate(60,99)"/>
<path d="M0 0 C2.875 -0.125 2.875 -0.125 6 0 C6.66 0.66 7.32 1.32 8 2 C5.36 1.67 2.72 1.34 0 1 C0 0.67 0 0.34 0 0 Z " fill="#361211" transform="translate(133,146)"/>
<path d="M0 0 C0.33 0 0.66 0 1 0 C1 2.97 1 5.94 1 9 C0.67 9 0.34 9 0 9 C0 6.03 0 3.06 0 0 Z " fill="#361211" transform="translate(156,119)"/>
<path d="M0 0 C1.42944945 2.35438733 2.08661261 3.48032433 1.625 6.25 C1.41875 6.8275 1.2125 7.405 1 8 C0.67 5.36 0.34 2.72 0 0 Z " fill="#412423" transform="translate(146,57)"/>
<path d="M0 0 C0.33 0 0.66 0 1 0 C1 2.64 1 5.28 1 8 C0.67 8 0.34 8 0 8 C0 5.36 0 2.72 0 0 Z " fill="#361211" transform="translate(155,108)"/>
<path d="M0 0 C2.31 0 4.62 0 7 0 C7 0.33 7 0.66 7 1 C4.69 1 2.38 1 0 1 C0 0.67 0 0.34 0 0 Z " fill="#371312" transform="translate(81,148)"/>
<path d="M0 0 C0.99 1.485 0.99 1.485 2 3 C1.67 3.99 1.34 4.98 1 6 C0.67 4.02 0.34 2.04 0 0 Z " fill="#422120" transform="translate(66,124)"/>
<path d="M0 0 C0.33 0 0.66 0 1 0 C1 2.31 1 4.62 1 7 C0.67 7 0.34 7 0 7 C0 4.69 0 2.38 0 0 Z " fill="#361211" transform="translate(154,101)"/>
<path d="M0 0 C0.33 0 0.66 0 1 0 C1 1.98 1 3.96 1 6 C0.67 6 0.34 6 0 6 C0 4.02 0 2.04 0 0 Z " fill="#361211" transform="translate(194,194)"/>
<path d="M0 0 C0.33 0 0.66 0 1 0 C1 1.98 1 3.96 1 6 C0.67 6 0.34 6 0 6 C0 4.02 0 2.04 0 0 Z " fill="#361211" transform="translate(153,93)"/>
<path d="M0 0 C0.33 0 0.66 0 1 0 C1 1.98 1 3.96 1 6 C0.67 6 0.34 6 0 6 C0 4.02 0 2.04 0 0 Z " fill="#361211" transform="translate(152,87)"/>
<path d="M0 0 C0.33 0 0.66 0 1 0 C1 1.98 1 3.96 1 6 C0.67 6 0.34 6 0 6 C0 4.02 0 2.04 0 0 Z " fill="#361211" transform="translate(151,80)"/>
<path d="M0 0 C0.33 0 0.66 0 1 0 C1 1.98 1 3.96 1 6 C0.67 6 0.34 6 0 6 C0 4.02 0 2.04 0 0 Z " fill="#3A1717" transform="translate(70,56)"/>
<path d="M0 0 C0.66 0.33 1.32 0.66 2 1 C1.01 1.66 0.02 2.32 -1 3 C-0.67 2.01 -0.34 1.02 0 0 Z " fill="#330E0D" transform="translate(43,174)"/>
<path d="M0 0 C1.32 0.33 2.64 0.66 4 1 C3.01 1.495 3.01 1.495 2 2 C1.34 1.34 0.68 0.68 0 0 Z " fill="#361211" transform="translate(142,148)"/>
<path d="M0 0 C0.33 0 0.66 0 1 0 C1 1.65 1 3.3 1 5 C0.67 5 0.34 5 0 5 C0 3.35 0 1.7 0 0 Z " fill="#361312" transform="translate(150,75)"/>
<path d="M0 0 C1.65 0 3.3 0 5 0 C5 0.33 5 0.66 5 1 C3.35 1 1.7 1 0 1 C0 0.67 0 0.34 0 0 Z " fill="#361211" transform="translate(83,36)"/>
<path d="M0 0 C1 4 1 4 1 4 Z " fill="#361211" transform="translate(30,194)"/>
<path d="M0 0 C4 1 4 1 4 1 Z " fill="#361211" transform="translate(64,162)"/>
<path d="M0 0 C1 4 1 4 1 4 Z " fill="#4F3231" transform="translate(69,134)"/>
<path d="M0 0 C1 4 1 4 1 4 Z " fill="#361211" transform="translate(60,77)"/>
<path d="M0 0 C1 4 1 4 1 4 Z " fill="#361312" transform="translate(149,70)"/>
<path d="M0 0 C1 4 1 4 1 4 Z " fill="#3A1818" transform="translate(148,66)"/>
<path d="M0 0 C0.99 0.495 0.99 0.495 2 1 C1.01 1.495 1.01 1.495 0 2 C0 1.34 0 0.68 0 0 Z " fill="#320E0D" transform="translate(40,177)"/>
<path d="" fill="#361211" transform="translate(0,0)"/>
<path d="" fill="#361211" transform="translate(0,0)"/>
<path d="M0 0 C3 1 3 1 3 1 Z " fill="#361211" transform="translate(61,163)"/>
<path d="M0 0 C3 1 3 1 3 1 Z " fill="#361211" transform="translate(174,156)"/>
<path d="" fill="#482929" transform="translate(0,0)"/>
<path d="M0 0 C3 1 3 1 3 1 Z " fill="#361211" transform="translate(137,139)"/>
<path d="" fill="#482827" transform="translate(0,0)"/>
<path d="M0 0 C0.33 0.66 0.66 1.32 1 2 C0.34 1.67 -0.32 1.34 -1 1 C-0.67 0.67 -0.34 0.34 0 0 Z " fill="#361211" transform="translate(157,128)"/>
<path d="" fill="#432221" transform="translate(0,0)"/>
<path d="" fill="#3A1716" transform="translate(0,0)"/>
<path d="" fill="#3B1817" transform="translate(0,0)"/>
<path d="" fill="#361110" transform="translate(0,0)"/>
<path d="M0 0 C0.33 0.66 0.66 1.32 1 2 C0.34 1.67 -0.32 1.34 -1 1 C-0.67 0.67 -0.34 0.34 0 0 Z " fill="#381515" transform="translate(78,50)"/>
<path d="" fill="#361211" transform="translate(0,0)"/>
<path d="" fill="#361211" transform="translate(0,0)"/>
<path d="" fill="#361211" transform="translate(0,0)"/>
<path d="" fill="#361211" transform="translate(0,0)"/>
<path d="" fill="#361211" transform="translate(0,0)"/>
<path d="" fill="#341110" transform="translate(0,0)"/>
<path d="" fill="#361211" transform="translate(0,0)"/>
<path d="M0 0 C2 1 2 1 2 1 Z " fill="#361211" transform="translate(56,165)"/>
<path d="M0 0 C2 1 2 1 2 1 Z " fill="#361211" transform="translate(77,147)"/>
<path d="M0 0 C2 1 2 1 2 1 Z " fill="#361211" transform="translate(140,138)"/>
<path d="M0 0 C2 1 2 1 2 1 Z " fill="#361211" transform="translate(147,135)"/>
<path d="" fill="#361211" transform="translate(0,0)"/>
<path d="" fill="#361211" transform="translate(0,0)"/>
<path d="" fill="#361212" transform="translate(0,0)"/>
<path d="" fill="#361312" transform="translate(0,0)"/>
<path d="" fill="#361312" transform="translate(0,0)"/>
<path d="" fill="#361211" transform="translate(0,0)"/>
<path d="" fill="#361211" transform="translate(0,0)"/>
<path d="" fill="#978483" transform="translate(0,0)"/>
<path d="M0 0 C2 1 2 1 2 1 Z " fill="#361211" transform="translate(81,37)"/>
<path d="" fill="#361211" transform="translate(0,0)"/>
<path d="" fill="#361312" transform="translate(0,0)"/>
<path d="" fill="#371312" transform="translate(0,0)"/>
<path d="" fill="#361211" transform="translate(0,0)"/>
<path d="" fill="#371312" transform="translate(0,0)"/>
<path d="" fill="#381413" transform="translate(0,0)"/>
<path d="" fill="#351211" transform="translate(0,0)"/>
<path d="" fill="#381413" transform="translate(0,0)"/>
<path d="" fill="#361211" transform="translate(0,0)"/>
<path d="" fill="#361211" transform="translate(0,0)"/>
<path d="" fill="#361211" transform="translate(0,0)"/>
<path d="" fill="#361211" transform="translate(0,0)"/>
<path d="" fill="#361211" transform="translate(0,0)"/>
<path d="" fill="#361211" transform="translate(0,0)"/>
<path d="" fill="#361211" transform="translate(0,0)"/>
<path d="" fill="#361211" transform="translate(0,0)"/>
<path d="" fill="#361211" transform="translate(0,0)"/>
<path d="" fill="#3B1918" transform="translate(0,0)"/>
<path d="" fill="#381413" transform="translate(0,0)"/>
<path d="" fill="#310A09" transform="translate(0,0)"/>
<path d="" fill="#361211" transform="translate(0,0)"/>
<path d="" fill="#371413" transform="translate(0,0)"/>
<path d="" fill="#371312" transform="translate(0,0)"/>
<path d="" fill="#1B0707" transform="translate(0,0)"/>
<path d="" fill="#361211" transform="translate(0,0)"/>
<path d="" fill="#371413" transform="translate(0,0)"/>
<path d="" fill="#361211" transform="translate(0,0)"/>
<path d="" fill="#391615" transform="translate(0,0)"/>
<path d="" fill="#351312" transform="translate(0,0)"/>
<path d="" fill="#1B0000" transform="translate(0,0)"/>
<path d="" fill="#391514" transform="translate(0,0)"/>
<path d="" fill="#361211" transform="translate(0,0)"/>
</svg>
